/* XPM */
static char * collectible_xpm[] = {
"32 32 134 2",
"  	c None",
". 	c #2D2E31",
"+ 	c #2E2F32",
"@ 	c #2E2F33",
"# 	c #2E3033",
"$ 	c #2C2E31",
"% 	c #2A2B2E",
"& 	c #993E26",
"* 	c #C8621E",
"= 	c #E28222",
"- 	c #E79029",
"; 	c #E79028",
"> 	c #E07C1F",
", 	c #C45E1E",
"' 	c #9E4123",
") 	c #2D2F32",
"! 	c #A94323",
"~ 	c #CC691E",
"{ 	c #E17A18",
"] 	c #DC7918",
"^ 	c #DD831D",
"/ 	c #DE831D",
"( 	c #DB7416",
"_ 	c #E17C18",
": 	c #D26E1D",
"< 	c #A24125",
"[ 	c #5C352F",
"} 	c #8A3E28",
"| 	c #E47A1B",
"1 	c #E3801B",
"2 	c #CF6B1E",
"3 	c #A14222",
"4 	c #A14322",
"5 	c #D2701D",
"6 	c #E4791A",
"7 	c #DF751A",
"8 	c #893D28",
"9 	c #5F352F",
"0 	c #6A422E",
"a 	c #D57219",
"b 	c #F19422",
"c 	c #CF7620",
"d 	c #963F26",
"e 	c #9F4224",
"f 	c #C45C1E",
"g 	c #F18E21",
"h 	c #D47219",
"i 	c #6D442E",
"j 	c #292A2D",
"k 	c #7F5330",
"l 	c #FE9E26",
"m 	c #C34811",
"n 	c #944228",
"o 	c #2F3135",
"p 	c #2B2C2F",
"q 	c #6C372C",
"r 	c #C74C12",
"s 	c #FE9D25",
"t 	c #815530",
"u 	c #282A2D",
"v 	c #7F5230",
"w 	c #FE9C24",
"x 	c #AC3C0F",
"y 	c #893B28",
"z 	c #2B2C30",
"A 	c #60322B",
"B 	c #B03F11",
"C 	c #FE9B24",
"D 	c #80552F",
"E 	c #7E5130",
"F 	c #FD9822",
"G 	c #A6380F",
"H 	c #843828",
"I 	c #2B2D30",
"J 	c #5D322C",
"K 	c #A93C10",
"L 	c #FD9923",
"M 	c #81532F",
"N 	c #7D4F2F",
"O 	c #FA921F",
"P 	c #AA3B0F",
"Q 	c #863928",
"R 	c #2F3134",
"S 	c #5F322C",
"T 	c #AE3E10",
"U 	c #FB9521",
"V 	c #80522F",
"W 	c #77492E",
"X 	c #EF831A",
"Y 	c #D06415",
"Z 	c #AB5526",
"` 	c #6E382D",
" .	c #713629",
"..	c #924729",
"+.	c #D26716",
"@.	c #F1871D",
"#.	c #7C4C2E",
"$.	c #64362E",
"%.	c #FD9D23",
"&.	c #DE7E1B",
"*.	c #A04322",
"=.	c #AA4521",
"-.	c #D66516",
";.	c #FD9922",
">.	c #68372D",
",.	c #7A3D2D",
"'.	c #D97117",
").	c #E4811D",
"!.	c #DC761E",
"~.	c #AF431C",
"{.	c #98381C",
"].	c #B3451D",
"^.	c #DE7C1F",
"/.	c #E8821D",
"(.	c #D36E17",
"_.	c #793C2D",
":.	c #8D3D26",
"<.	c #C16121",
"[.	c #E07518",
"}.	c #E07216",
"|.	c #D46A13",
"1.	c #D56A13",
"2.	c #E27416",
"3.	c #DF7618",
"4.	c #C9661D",
"5.	c #893E28",
"6.	c #2A2B2F",
"7.	c #8E3D28",
"8.	c #B25A23",
"9.	c #C56E25",
"0.	c #C16923",
"a.	c #C77125",
"b.	c #AF5723",
"c.	c #913F25",
"                                                                ",
"                                                                ",
"                                                                ",
"                                                                ",
"                                                                ",
"                                                                ",
"                                                                ",
"                                                                ",
"                                                                ",
"                        . + + @ # + + $                         ",
"                      % & * = - ; > , ' )                       ",
"                    $ ! ~ { ] ^ / ( _ : < $                     ",
"                  [ } | 1 2 3 3 4 3 5 6 7 8 9                   ",
"                  0 a b c d + + + + e f g h i j                 ",
"                  k l m n o         p q r s t u                 ",
"                  v w x y o         z A B C D u                 ",
"                  E F G H o         I J K L M u                 ",
"                  N O P Q R         z S T U V u                 ",
"                  W X Y Z `          ...+.@.#.u                 ",
"                  $.r %.&.*.) ) ) ) =.-.;.r >.u                 ",
"                    ,.'.).!.~.{.{.].^./.(._.                    ",
"                      :.<.[.}.|.1.2.3.4.5.                      ",
"                      6.7.8.9.0.0.a.b.c.@                       ",
"                        $ ) ) ) ) ) ) I                         ",
"                                                                ",
"                                                                ",
"                                                                ",
"                                                                ",
"                                                                ",
"                                                                ",
"                                                                ",
"                                                                "};
