/* XPM */
static char * collectible64_xpm[] = {
"64 64 433 2",
"  	c None",
". 	c #2D2F31",
"+ 	c #2E3033",
"@ 	c #2E2F33",
"# 	c #2D2F32",
"$ 	c #2E2F32",
"% 	c #2D3032",
"& 	c #2C2F32",
"* 	c #312E31",
"= 	c #323032",
"- 	c #333132",
"; 	c #333232",
"> 	c #333233",
", 	c #323132",
"' 	c #322F32",
") 	c #302F31",
"! 	c #25272B",
"~ 	c #292A2E",
"{ 	c #783829",
"] 	c #AC4520",
"^ 	c #AF4C20",
"/ 	c #C67422",
"( 	c #CE7E23",
"_ 	c #CF8326",
": 	c #D28E2B",
"< 	c #D28E2A",
"[ 	c #D28D2A",
"} 	c #CE8024",
"| 	c #CD7D23",
"1 	c #C87522",
"2 	c #AF4D20",
"3 	c #AB451F",
"4 	c #7A3828",
"5 	c #2A2B2E",
"6 	c #27292C",
"7 	c #2A2B2F",
"8 	c #813B29",
"9 	c #C74C12",
"0 	c #CB5311",
"a 	c #EE8118",
"b 	c #F88A1A",
"c 	c #FA911E",
"d 	c #FF9F26",
"e 	c #FF9E26",
"f 	c #F98D1C",
"g 	c #F98A1A",
"h 	c #F18318",
"i 	c #CC5512",
"j 	c #C74B12",
"k 	c #843B29",
"l 	c #2A2C2F",
"m 	c #833B2A",
"n 	c #A75024",
"o 	c #D86C17",
"p 	c #DA6E16",
"q 	c #E47917",
"r 	c #E77A17",
"s 	c #E9801A",
"t 	c #ED8B20",
"u 	c #ED8B21",
"v 	c #E87C19",
"w 	c #E87917",
"x 	c #E57917",
"y 	c #DB6E16",
"z 	c #D86C16",
"A 	c #A95224",
"B 	c #823C2A",
"C 	c #7F3A28",
"D 	c #2C2E31",
"E 	c #332E31",
"F 	c #BE4A1B",
"G 	c #C84C13",
"H 	c #D96C17",
"I 	c #FA941F",
"J 	c #F7911E",
"K 	c #D26415",
"L 	c #C74E12",
"M 	c #C74F12",
"N 	c #C85013",
"O 	c #C85012",
"P 	c #C74E11",
"Q 	c #D05F13",
"R 	c #F68E1D",
"S 	c #F9931E",
"T 	c #D96E18",
"U 	c #C74C13",
"V 	c #C14A17",
"W 	c #322E31",
"X 	c #282A2D",
"Y 	c #4C3330",
"Z 	c #4F3330",
"` 	c #C3531B",
" .	c #CC5813",
"..	c #DB7118",
"+.	c #F8941F",
"@.	c #F5901F",
"#.	c #CE6117",
"$.	c #C24A15",
"%.	c #C24B15",
"&.	c #C14A15",
"*.	c #C14A14",
"=.	c #CB5D16",
"-.	c #F38D1D",
";.	c #F7921E",
">.	c #DB7318",
",.	c #CC5713",
"'.	c #C65516",
").	c #4E3230",
"!.	c #4B3230",
"~.	c #492E2C",
"{.	c #252D31",
"].	c #8E3E28",
"^.	c #B6481D",
"/.	c #B5491C",
"(.	c #E98A21",
"_.	c #F29222",
":.	c #E8871E",
"<.	c #D56A16",
"[.	c #CF6518",
"}.	c #904728",
"|.	c #73392C",
"1.	c #74392C",
"2.	c #73382B",
"3.	c #8C4429",
"4.	c #CE6419",
"5.	c #D46916",
"6.	c #E7861D",
"7.	c #F29121",
"8.	c #EE8F21",
"9.	c #B4471C",
"0.	c #B5471D",
"a.	c #943F26",
"b.	c #242D31",
"c.	c #2B2D30",
"d.	c #262E32",
"e.	c #973F27",
"f.	c #C74C11",
"g.	c #F59623",
"h.	c #C95112",
"i.	c #6D382D",
"j.	c #65362E",
"k.	c #C14A16",
"l.	c #C84F11",
"m.	c #EC881F",
"n.	c #FF9C25",
"o.	c #FA9A24",
"p.	c #C64B12",
"q.	c #9C4125",
"r.	c #252F32",
"s.	c #262D33",
"t.	c #9F5829",
"u.	c #D9731A",
"v.	c #E98D20",
"w.	c #EE9021",
"x.	c #DB7E20",
"y.	c #B34A1F",
"z.	c #AF4720",
"A.	c #6A362B",
"B.	c #292B2F",
"C.	c #292B2E",
"D.	c #64342C",
"E.	c #AE4621",
"F.	c #B24A1F",
"G.	c #D97C20",
"H.	c #EE8E20",
"I.	c #EB8E20",
"J.	c #D7741A",
"K.	c #D8721A",
"L.	c #A75C27",
"M.	c #242D33",
"N.	c #232C33",
"O.	c #B4772D",
"P.	c #FD9E26",
"Q.	c #FD9D26",
"R.	c #D06517",
"S.	c #C74D12",
"T.	c #AA4520",
"U.	c #3D3031",
"V.	c #322F31",
"W.	c #3A3031",
"X.	c #A74420",
"Y.	c #C84D12",
"Z.	c #CB5914",
"`.	c #FD9F26",
" +	c #FD9C25",
".+	c #BD7B2A",
"++	c #202B33",
"@+	c #2C2F31",
"#+	c #B5772D",
"$+	c #FD9D25",
"%+	c #CF6417",
"&+	c #AA4420",
"*+	c #373032",
"=+	c #A64321",
"-+	c #CA5714",
";+	c #FE9C25",
">+	c #BE7C2A",
",+	c #212C33",
"'+	c #B5752D",
")+	c #C46016",
"!+	c #B74311",
"~+	c #9C3E20",
"{+	c #393031",
"]+	c #372F31",
"^+	c #9B3D20",
"/+	c #BD5113",
"(+	c #FE9B24",
"_+	c #BE7B2A",
":+	c #202C33",
"<+	c #2B2D31",
"[+	c #FD9B24",
"}+	c #FD9B23",
"|+	c #B95B14",
"1+	c #A93C10",
"2+	c #91391F",
"3+	c #382F32",
"4+	c #372F32",
"5+	c #8E3820",
"6+	c #A93B10",
"7+	c #B24B12",
"8+	c #FD9923",
"9+	c #BD7A2A",
"0+	c #232D33",
"a+	c #B4742C",
"b+	c #FC9922",
"c+	c #BA5A14",
"d+	c #91381F",
"e+	c #362F32",
"f+	c #8E3821",
"g+	c #A83B10",
"h+	c #B24C12",
"i+	c #FC9B24",
"j+	c #FD9922",
"k+	c #BD792A",
"l+	c #212B33",
"m+	c #B4722B",
"n+	c #FC9721",
"o+	c #FC9621",
"p+	c #B95913",
"q+	c #B14B12",
"r+	c #FC9A24",
"s+	c #FD9722",
"t+	c #BD7729",
"u+	c #222C33",
"v+	c #B4712B",
"w+	c #FB9420",
"x+	c #FB931F",
"y+	c #B95813",
"z+	c #A83C11",
"A+	c #B24A12",
"B+	c #BD7628",
"C+	c #B36F2B",
"D+	c #F9901D",
"E+	c #F98E1D",
"F+	c #C75B13",
"G+	c #BB4511",
"H+	c #A0401F",
"I+	c #383031",
"J+	c #2D2E32",
"K+	c #363032",
"L+	c #9E3F21",
"M+	c #BC4611",
"N+	c #C05112",
"O+	c #FA9521",
"P+	c #FA9320",
"Q+	c #BC7528",
"R+	c #212D33",
"S+	c #B36D2A",
"T+	c #F88E1C",
"U+	c #F88D1C",
"V+	c #CD5D13",
"W+	c #C54A11",
"X+	c #A84320",
"Y+	c #363031",
"Z+	c #292E32",
"`+	c #332F32",
" @	c #A64221",
".@	c #C64A11",
"+@	c #C95312",
"@@	c #FA9420",
"#@	c #FA911F",
"$@	c #BC7428",
"%@	c #2C2E32",
"&@	c #AA6429",
"*@	c #E9811A",
"=@	c #E98119",
"-@	c #D87117",
";@	c #D76C17",
">@	c #C1601F",
",@	c #843D2B",
"'@	c #803B2B",
")@	c #813B2B",
"!@	c #BF5F20",
"~@	c #D76E17",
"{@	c #D87218",
"]@	c #EC881D",
"^@	c #EC861C",
"/@	c #B36A28",
"(@	c #222D33",
"_@	c #262E33",
":@	c #964028",
"<@	c #F38F1F",
"[@	c #FD9822",
"}@	c #EC851D",
"|@	c #C24B16",
"1@	c #6E382D",
"2@	c #2D2F33",
"3@	c #65352E",
"4@	c #C04A17",
"5@	c #C84F12",
"6@	c #EA861E",
"7@	c #F89721",
"8@	c #C64D12",
"9@	c #9E4226",
"0@	c #252E33",
"a@	c #C84D13",
"b@	c #C74D13",
"c@	c #F39120",
"d@	c #ED871E",
"e@	c #C24C16",
"f@	c #70382D",
"g@	c #312F32",
"h@	c #67362E",
"i@	c #C14B17",
"j@	c #EB871D",
"k@	c #FE9922",
"l@	c #F89722",
"m@	c #C64C12",
"n@	c #723629",
"o@	c #803C2C",
"p@	c #823C2B",
"q@	c #CE6A1C",
"r@	c #D86F18",
"s@	c #DF7A1A",
"t@	c #ED8C1F",
"u@	c #E9881F",
"v@	c #BE5B1F",
"w@	c #AF461F",
"x@	c #A6411F",
"y@	c #97391F",
"z@	c #96381E",
"A@	c #96391F",
"B@	c #A9431F",
"C@	c #BB591F",
"D@	c #E8871F",
"E@	c #EC8B1E",
"F@	c #DE7D1A",
"G@	c #D76F18",
"H@	c #D36E19",
"I@	c #7F3B2C",
"J@	c #813C2C",
"K@	c #753729",
"L@	c #282F32",
"M@	c #2F2F31",
"N@	c #BE491A",
"O@	c #C84B11",
"P@	c #DA6E18",
"Q@	c #FA9622",
"R@	c #D46515",
"S@	c #C74B11",
"T@	c #C04811",
"U@	c #D16116",
"V@	c #F89321",
"W@	c #DB7119",
"X@	c #C24A16",
"Y@	c #2F2E32",
"Z@	c #232A2D",
"`@	c #312D30",
" #	c #AA4421",
".#	c #B0461E",
"+#	c #C7641E",
"@#	c #ED891F",
"##	c #DB7016",
"$#	c #D66614",
"%#	c #CE6114",
"&#	c #C15B12",
"*#	c #C15A12",
"=#	c #C25A12",
"-#	c #D16314",
";#	c #D66615",
">#	c #DA6F16",
",#	c #EC871D",
"'#	c #ED891D",
")#	c #C8661E",
"!#	c #AC4620",
"~#	c #402E2F",
"{#	c #443231",
"]#	c #874029",
"^#	c #C95314",
"/#	c #CD5913",
"(#	c #ED8219",
"_#	c #F58A1A",
":#	c #F28418",
"<#	c #EE7F17",
"[#	c #EF7F16",
"}#	c #EF7F17",
"|#	c #EF8017",
"1#	c #F48719",
"2#	c #F68A1B",
"3#	c #EF851A",
"4#	c #CE5B13",
"5#	c #C95313",
"6#	c #8A4129",
"7#	c #433231",
"8#	c #412F2E",
"9#	c #803B29",
"0#	c #C34B16",
"a#	c #C85316",
"b#	c #E77F1A",
"c#	c #F1871C",
"d#	c #EE821A",
"e#	c #EB7E19",
"f#	c #EB7E18",
"g#	c #F0861B",
"h#	c #F2891C",
"i#	c #EB821B",
"j#	c #C95415",
"k#	c #C44B16",
"l#	c #843C29",
"m#	c #2D2E31",
"n#	c #65332B",
"o#	c #78392C",
"p#	c #793C2C",
"q#	c #87522D",
"r#	c #8C572D",
"s#	c #8B542C",
"t#	c #89512C",
"u#	c #89522C",
"v#	c #8C562D",
"w#	c #89532D",
"x#	c #7A3D2C",
"y#	c #67352B",
"z#	c #2A2C30",
"                                                                                                                                ",
"                                                                                                                                ",
"                                                                                                                                ",
"                                                                                                                                ",
"                                                                                                                                ",
"                                                                                                                                ",
"                                                                                                                                ",
"                                                                                                                                ",
"                                                                                                                                ",
"                                                                                                                                ",
"                                                                                                                                ",
"                                                                                                                                ",
"                                                                                                                                ",
"                                                                                                                                ",
"                                                                                                                                ",
"                                                                                                                                ",
"                                                                                                                                ",
"                                                                                                                                ",
"                                                  . + @ # @ + $ % + + + + # &                                                   ",
"                                                  * = = - ; > ; > > ; - , ' )                                                   ",
"                                            ! ~ { ] ^ / ( _ : < < [ } | 1 2 3 4 5 6                                             ",
"                                            7 $ 8 9 0 a b c d d d e f g h i j k $ l                                             ",
"                                            8 m n o p q r s t u u t v w x y z A B C                                             ",
"                                        D E F G H I J K L M N N O O P L Q R S T U V W D X                                       ",
"                                        Y Z `  ...+.@.#.$.%.%.%.%.$.&.*.=.-.;.>.,.'.).!.~.                                      ",
"                                  l {.].^./.(._.:.<.[.}.|.|.|.|.1.|.|.2.3.4.5.6.7.8.9.0.a.b.c.                                  ",
"                                  c.d.e.9 f.g.e t h.%.i.$ # $ # # # # # j.k.l.m.n.o.p.j q.r.D                                   ",
"                                  c.s.t.u.u.v.w.x.y.z.A.B.7 l 7 C.7 7 7 D.E.F.G.H.I.J.K.L.M.D                                   ",
"                                  c.N.O.P.Q.R.S.T.U.'                     V.W.X.Y.Z.`. +.+++@+                                  ",
"                                  c.N.#+P.$+%+j &+W.#                     . *+=+9 -+P.;+>+,+D                                   ",
"                                  c.N.'+$+ +)+!+~+{+#                     # ]+^+!+/+$+(+_+:+D                                   ",
"                                  <+N.'+[+}+|+1+2+3+#                     # 4+5+6+7+ +8+9+:+&                                   ",
"                                  c.0+a+8+b+c+6+d+4+#                     # e+f+g+h+i+j+k+l+D                                   ",
"                                  c.N.m+n+o+p+g+d+4+#                     # 4+5+6+q+r+s+t+:+&                                   ",
"                                  c.u+v+w+x+y+6+d+]+#                     # 4+5+z+A+b+o+B+:+&                                   ",
"                                  c.N.C+D+E+F+G+H+I+J+                    # K+L+M+N+O+P+Q+R+&                                   ",
"                                  c.N.S+T+U+V+W+X+Y+Z+                    Z+`+ @.@+@@@#@$@:+%@                                  ",
"                                  c.M.&@*@=@-@;@>@,@'@                    )@,@!@~@{@]@^@/@(@%@                                  ",
"                                  c._@:@S.P <@[@}@O |@1@# # @ # # 2@# # 3@4@5@6@8+7@8@Y.9@0@%@                                  ",
"                                  c._@:@a@b@c@8+d@h.e@f@g@g@g@g@g@g@' ' h@i@O j@k@l@m@a@9@0@%@                                  ",
"                                      n@o@p@q@r@s@t@u@v@w@x@y@z@z@A@B@w@C@D@E@F@G@H@I@J@K@                                      ",
"                                        L@M@N@O@P@8+Q@R@S@M+1+1+1+1+T@f.U@V@b+W@j X@Y@L@Z@                                      ",
"                                        c.`@ #.#+#@#]@##$#%#&#*#*#=#-#;#>#,#'#)#.#!#`@c.                                        ",
"                                            ~#{#]#^#/#(#_#:#<#[#}#|#1#2#3#4#5#6#7#8#                                            ",
"                                            B.D 9#0#a#b#c#d#e#f#e#e#g#h#i#j#k#l#m#l                                             ",
"                                                n#o#p#q#r#s#t#t#t#u#v#r#w#x#o#y#                                                ",
"                                                  %@# # # # # J+& # # # # # D                                                   ",
"                                                  B.z#z#l z#z#l l l l l l l C.                                                  ",
"                                                                                                                                ",
"                                                                                                                                ",
"                                                                                                                                ",
"                                                                                                                                ",
"                                                                                                                                ",
"                                                                                                                                ",
"                                                                                                                                ",
"                                                                                                                                ",
"                                                                                                                                ",
"                                                                                                                                ",
"                                                                                                                                ",
"                                                                                                                                ",
"                                                                                                                                ",
"                                                                                                                                ",
"                                                                                                                                ",
"                                                                                                                                "};
