/* XPM */
static char * doors_xpm[] = {
"32 32 267 2",
"  	c None",
". 	c #2B3436",
"+ 	c #424A40",
"@ 	c #444D43",
"# 	c #434C42",
"$ 	c #454E43",
"% 	c #293235",
"& 	c #1C262D",
"* 	c #596250",
"= 	c #6E7760",
"- 	c #4A534A",
"; 	c #717C64",
"> 	c #747F65",
", 	c #727D64",
"' 	c #768267",
") 	c #454E47",
"! 	c #636D59",
"~ 	c #565E4E",
"{ 	c #1C262C",
"] 	c #1D262D",
"^ 	c #6A745D",
"/ 	c #606B57",
"( 	c #5E6956",
"_ 	c #343D3A",
": 	c #424B43",
"< 	c #424C43",
"[ 	c #414A43",
"} 	c #495248",
"| 	c #363E3B",
"1 	c #545E50",
"2 	c #5C6654",
"3 	c #66705A",
"4 	c #1D272D",
"5 	c #69735C",
"6 	c #4E584C",
"7 	c #3B443D",
"8 	c #21292B",
"9 	c #20292B",
"0 	c #20282B",
"a 	c #232C2D",
"b 	c #20292C",
"c 	c #343C37",
"d 	c #465046",
"e 	c #67735C",
"f 	c #65705B",
"g 	c #212B30",
"h 	c #586253",
"i 	c #2F3534",
"j 	c #391D18",
"k 	c #50230E",
"l 	c #582710",
"m 	c #4E220F",
"n 	c #491F0D",
"o 	c #5D2A11",
"p 	c #5E2C11",
"q 	c #381C16",
"r 	c #2D3332",
"s 	c #485248",
"t 	c #606B58",
"u 	c #252F33",
"v 	c #434D43",
"w 	c #3B443F",
"x 	c #343B39",
"y 	c #37201D",
"z 	c #6D3614",
"A 	c #703715",
"B 	c #4F230F",
"C 	c #6C3414",
"D 	c #7C4018",
"E 	c #311B19",
"F 	c #4A544B",
"G 	c #485349",
"H 	c #1D272C",
"I 	c #5F6A55",
"J 	c #5A6452",
"K 	c #252126",
"L 	c #532610",
"M 	c #622E12",
"N 	c #7A4018",
"O 	c #7F4319",
"P 	c #50240F",
"Q 	c #49200D",
"R 	c #7D4118",
"S 	c #81451A",
"T 	c #632F12",
"U 	c #52250F",
"V 	c #241F23",
"W 	c #758167",
"X 	c #626D59",
"Y 	c #5B6653",
"Z 	c #282327",
"` 	c #622F13",
" .	c #6E3615",
"..	c #89501E",
"+.	c #82451B",
"@.	c #4A200D",
"#.	c #8B4F1E",
"$.	c #703815",
"%.	c #633012",
"&.	c #272125",
"*.	c #7E8B6E",
"=.	c #606B59",
"-.	c #1F282F",
";.	c #576150",
">.	c #5B6756",
",.	c #292427",
"'.	c #6A3515",
").	c #743B17",
"!.	c #874D1D",
"~.	c #82461B",
"{.	c #51250F",
"].	c #84471B",
"^.	c #8C501F",
"/.	c #733B16",
"(.	c #683414",
"_.	c #282225",
":.	c #737F67",
"<.	c #5C6856",
"[.	c #1E282E",
"}.	c #485247",
"|.	c #475148",
"1.	c #292326",
"2.	c #6B3615",
"3.	c #753C17",
"4.	c #864B1D",
"5.	c #83461A",
"6.	c #522510",
"7.	c #86491C",
"8.	c #8A4E1E",
"9.	c #693414",
"0.	c #272124",
"a.	c #5A6656",
"b.	c #4F5A4E",
"c.	c #1E292E",
"d.	c #505A4B",
"e.	c #5D6754",
"f.	c #222227",
"g.	c #533022",
"h.	c #5D3727",
"i.	c #673E28",
"j.	c #81441A",
"k.	c #51240F",
"l.	c #83471B",
"m.	c #6E432A",
"n.	c #5A3526",
"o.	c #522F22",
"p.	c #212126",
"q.	c #66715C",
"r.	c #545E51",
"s.	c #6F7B63",
"t.	c #192329",
"u.	c #202A30",
"v.	c #263035",
"w.	c #252E33",
"x.	c #7F4219",
"y.	c #232D33",
"z.	c #1F282E",
"A.	c #182128",
"B.	c #778469",
"C.	c #5F6A58",
"D.	c #535C4D",
"E.	c #465045",
"F.	c #212025",
"G.	c #412018",
"H.	c #4D261A",
"I.	c #582C1A",
"J.	c #7E4119",
"K.	c #743C1E",
"L.	c #492419",
"M.	c #411F16",
"N.	c #211E23",
"O.	c #626D5A",
"P.	c #566152",
"Q.	c #1E272E",
"R.	c #4B5548",
"S.	c #3E4741",
"T.	c #252226",
"U.	c #673314",
"V.	c #753B16",
"W.	c #86491B",
"X.	c #87491C",
"Y.	c #773C17",
"Z.	c #6A3514",
"`.	c #262124",
" +	c #616D5B",
".+	c #556052",
"++	c #3B453F",
"@+	c #3A4440",
"#+	c #252125",
"$+	c #673414",
"%+	c #884E1D",
"&+	c #82451A",
"*+	c #52240F",
"=+	c #733A16",
"-+	c #663213",
";+	c #272024",
">+	c #5C6858",
",+	c #1C252C",
"'+	c #4F584A",
")+	c #576151",
"!+	c #653214",
"~+	c #723A16",
"{+	c #854B1C",
"]+	c #50230F",
"^+	c #481E0D",
"/+	c #7E4218",
"(+	c #874B1D",
"_+	c #733916",
":+	c #653113",
"<+	c #262024",
"[+	c #68735E",
"}+	c #525D4F",
"|+	c #5D6854",
"1+	c #68745D",
"2+	c #1F2329",
"3+	c #462E28",
"4+	c #4F342C",
"5+	c #5C3D2C",
"6+	c #471E0C",
"7+	c #5E3E2E",
"8+	c #50352D",
"9+	c #472F28",
"0+	c #1F2127",
"a+	c #778368",
"b+	c #5D6856",
"c+	c #1B252B",
"d+	c #4A5448",
"e+	c #1A242B",
"f+	c #212A30",
"g+	c #252E34",
"h+	c #242D33",
"i+	c #7A3F18",
"j+	c #471E0D",
"k+	c #793E17",
"l+	c #273035",
"m+	c #262F34",
"n+	c #192229",
"o+	c #5A6555",
"p+	c #4D574C",
"q+	c #434C43",
"r+	c #3A443F",
"s+	c #221E22",
"t+	c #431B0C",
"u+	c #471D0C",
"v+	c #5F2A0F",
"w+	c #763B16",
"x+	c #4D220E",
"y+	c #441D0C",
"z+	c #743A15",
"A+	c #6F3412",
"B+	c #461C0C",
"C+	c #411A0C",
"D+	c #211E22",
"E+	c #4E594E",
"F+	c #424D45",
"G+	c #1A2329",
"H+	c #212B32",
"I+	c #1F292F",
"J+	c #161F26",
"K+	c #172027",
"L+	c #182127",
"M+	c #161E25",
"N+	c #172127",
"O+	c #172026",
"P+	c #151F26",
"Q+	c #253036",
"R+	c #232E34",
"                                                                ",
"                                                                ",
"                                                                ",
"                                                                ",
"                                                                ",
"                                                                ",
"                          . + @ # $ %                           ",
"                    & * = - ; > , ' ) ! ~ {                     ",
"                  ] ^ / ( _ : < [ } | 1 2 3 4                   ",
"                  5 , 6 7 8 8 9 0 a b c d e f                   ",
"                g 2 h i j k l m n o p q r s t u                 ",
"                v w x y m z A B n C D m E i F G H               ",
"                I J K L M N O P Q R S T U V W X 4               ",
"                Y f Z `  ...+.U @.S #.$.%.&.*.=.-.              ",
"                ;.>.,.'.).!.~.{.@.].^./.(._.:.<.[.              ",
"                }.|.1.2.3.4.5.6.@.7.8.).9.0.a.b.c.              ",
"                d.e.f.g.h.i.j.k.n l.m.n.o.p.q.r.4               ",
"                I s.t.u.v.w.x.k.n +.v.y.z.A.B.C.[.              ",
"                D.E.F.G.H.I.J.P n x.K.L.M.N.O.P.Q.              ",
"                R.S.T.U.V.W.j.U @.x.X.Y.Z.`. +.+[.              ",
"                ++@+#+$+3.%+&+*+n x.#.=+-+;+>+b.,+              ",
"                '+)+#+!+~+{+x.]+^+/+(+_+:+<+[+}+,+              ",
"                |+1+2+3+4+5+D B 6+D 7+8+9+0+a+b+c+              ",
"                d+d e+f+g+h+i+B j+k+l+m+f+n+o+p+{               ",
"                q+r+s+t+u+v+w+x+y+z+A+B+C+D+E+F+G+              ",
"                H+I+J+K+K+A.c+L+M+A.n+N+O+P+Q+R+                ",
"                                                                ",
"                                                                ",
"                                                                ",
"                                                                ",
"                                                                ",
"                                                                "};
