/* XPM */
static char * floor64_xpm[] = {
"64 64 226 2",
"  	c #496B12",
". 	c #4A6C12",
"+ 	c #4A6D12",
"@ 	c #496C12",
"# 	c #4B6E12",
"$ 	c #4C6F12",
"% 	c #4D7012",
"& 	c #4D6F12",
"* 	c #4C6E12",
"= 	c #4B6D12",
"- 	c #4B6E11",
"; 	c #486B12",
"> 	c #4E7112",
", 	c #517412",
"' 	c #517512",
") 	c #4F7212",
"! 	c #507312",
"~ 	c #4E7212",
"{ 	c #4F7312",
"] 	c #507412",
"^ 	c #4D7112",
"/ 	c #527512",
"( 	c #476812",
"_ 	c #4F7112",
": 	c #4F7213",
"< 	c #4E7012",
"[ 	c #507212",
"} 	c #517313",
"| 	c #537612",
"1 	c #476813",
"2 	c #486912",
"3 	c #4C7012",
"4 	c #527513",
"5 	c #527612",
"6 	c #4A6C11",
"7 	c #4A6C13",
"8 	c #476912",
"9 	c #4D6F13",
"0 	c #527413",
"a 	c #466712",
"b 	c #507313",
"c 	c #517513",
"d 	c #517312",
"e 	c #466812",
"f 	c #446612",
"g 	c #486A11",
"h 	c #537614",
"i 	c #486A12",
"j 	c #547713",
"k 	c #537613",
"l 	c #547712",
"m 	c #446512",
"n 	c #4F7114",
"o 	c #537514",
"p 	c #517413",
"q 	c #466811",
"r 	c #537713",
"s 	c #527613",
"t 	c #426411",
"u 	c #4B6D13",
"v 	c #507214",
"w 	c #4F7013",
"x 	c #557812",
"y 	c #577A13",
"z 	c #557813",
"A 	c #4E7013",
"B 	c #587B15",
"C 	c #507413",
"D 	c #557912",
"E 	c #567913",
"F 	c #537712",
"G 	c #4B6D11",
"H 	c #557814",
"I 	c #4B6E13",
"J 	c #456712",
"K 	c #4C6F11",
"L 	c #547812",
"M 	c #547813",
"N 	c #486B13",
"O 	c #547614",
"P 	c #557714",
"Q 	c #557913",
"R 	c #567A13",
"S 	c #456611",
"T 	c #456612",
"U 	c #567912",
"V 	c #567A12",
"W 	c #4E7113",
"X 	c #567B13",
"Y 	c #587B13",
"Z 	c #406112",
"` 	c #577A14",
" .	c #3D5D12",
"..	c #577B13",
"+.	c #597C13",
"@.	c #5A7E14",
"#.	c #5A7E13",
"$.	c #597D13",
"%.	c #4D7111",
"&.	c #547714",
"*.	c #5B7E13",
"=.	c #587C13",
"-.	c #4F7113",
";.	c #577B12",
">.	c #5A7D13",
",.	c #597D14",
"'.	c #597C14",
").	c #496A12",
"!.	c #4F7012",
"~.	c #587C12",
"{.	c #527412",
"].	c #4E7111",
"^.	c #5C8014",
"/.	c #597D12",
"(.	c #5B7F13",
"_.	c #5C7F13",
":.	c #5C8013",
"<.	c #476811",
"[.	c #5C7F14",
"}.	c #5D8014",
"|.	c #5E8214",
"1.	c #5F8214",
"2.	c #5E8114",
"3.	c #5A7D14",
"4.	c #5D8113",
"5.	c #618414",
"6.	c #628615",
"7.	c #628514",
"8.	c #608414",
"9.	c #608314",
"0.	c #577913",
"a.	c #496A13",
"b.	c #5D8013",
"c.	c #597C12",
"d.	c #4B6C12",
"e.	c #426212",
"f.	c #5B7D13",
"g.	c #5F8314",
"h.	c #618514",
"i.	c #4C6E13",
"j.	c #5B7F14",
"k.	c #5E8113",
"l.	c #638714",
"m.	c #5D8114",
"n.	c #537513",
"o.	c #456613",
"p.	c #507213",
"q.	c #446412",
"r.	c #628614",
"s.	c #5B7E14",
"t.	c #3F6111",
"u.	c #456711",
"v.	c #638615",
"w.	c #416212",
"x.	c #507113",
"y.	c #597B13",
"z.	c #5E8213",
"A.	c #446511",
"B.	c #527414",
"C.	c #577A12",
"D.	c #547613",
"E.	c #5A7D12",
"F.	c #527514",
"G.	c #567914",
"H.	c #5D8115",
"I.	c #416112",
"J.	c #4A6D11",
"K.	c #618415",
"L.	c #4C6D13",
"M.	c #567814",
"N.	c #577912",
"O.	c #5D7F14",
"P.	c #638614",
"Q.	c #587B12",
"R.	c #587A13",
"S.	c #4A6B12",
"T.	c #5A7E12",
"U.	c #5A7C13",
"V.	c #648714",
"W.	c #608313",
"X.	c #4D6F11",
"Y.	c #426412",
"Z.	c #486911",
"`.	c #4B6C11",
" +	c #4C6D12",
".+	c #5F8113",
"++	c #537512",
"@+	c #3F5F11",
"#+	c #5F8213",
"$+	c #486812",
"%+	c #567812",
"&+	c #486913",
"*+	c #567813",
"=+	c #547612",
"-+	c #4A6B13",
";+	c #426312",
">+	c #597B15",
",+	c #557713",
"'+	c #618513",
")+	c #5F8313",
"!+	c #597C15",
"~+	c #608413",
"{+	c #4F7211",
"]+	c #577914",
"^+	c #486A13",
"/+	c #466711",
"(+	c #517411",
"_+	c #476A11",
":+	c #466912",
"<+	c #577C13",
"[+	c #597E13",
"}+	c #496B11",
"|+	c #406012",
"1+	c #406212",
"2+	c #476911",
"3+	c #436512",
"4+	c #4A6B11",
"5+	c #456812",
"6+	c #416111",
"7+	c #426311",
"8+	c #5A7D15",
"9+	c #416211",
"0+	c #406111",
"a+	c #436411",
"b+	c #517311",
"c+	c #4D7011",
"  . + . + + @ # + + # $ % % $ $ % % $ # & # # # % $ $ # # +   # # # $ * & + = = % % $ - + # + + = # $ $ @   . = . ; @ + = + .   ",
"+ $ $ $ $ # * % % % > , ' ) > > ) ) # % ) ) ! ) > ~ % > % % % > { $ ~ { ] ) ) ! ! ! ) > > > ^ % % ) ~ > % % $ % $ $ % % % $ $ + ",
"= & # $ # % > { > > ) ) ] ] / , ) = ( $ / / / / ! ! ! ) ) ) ! ! , { ! ! ! > . ) _ ! { ! { ] , ] ! ) : ! ) > % $ # $ > > % % % # ",
". $ # % % < > ) > ! , , ' [ ) = $ ( }   + ) / ! , , | , , ! ! ) ) ! ! ) ) ) 1 # 2 3 4 / 5 / 5 ' ' / { , ^ . % 6 7 * > ^ ^ % % $ ",
"= # * % % > ) ) ! , / / ! , ! ( 8 9 0 a b > | , c , , d ' / ) * > { ! ) % = . e f % b , / / 4 , 5 5 ' , ! e g . h i * $ > ) > ^ ",
"# # * $ > ! ! ) ) ) / j k l , > m n o 0   ) l | , / ! d ! ! ) & ! p / c d i q ; > ) 5 | l j , $ 5 r | s ] > t h u v w * { ~ > 3 ",
"+ * $ > < ) ! < & b / | x y z ' % A p _ > / ' / ' / k , < & B = ! ! | 4 k ' > C / k z D E z l > | j F | | ! G H I v J < ) ) > > ",
"+ $ $ % & > : K a % ) s l L E k k / ' s k s k M j k , r N O P % / s s j r s | 4 5 r | L x x Q z R Q x x j k ! 4 ~ $ ) ) > ^ % $ ",
"% ) > % S T $ a o @ e ' U U V Q z k M L l l j l j p , k H z W / Q R E X R y y Y E M l M x E U U Q L ' Q R D L F | 5 b , { > % & ",
"& ) > _ > a Z a `  .# l E y V x E E R E M R Y z j k M / , , b l E E ..+.@.#.Y y $.$.y D z E U l j # % z Q Q U Q | x / ' , { %.% ",
"$ $ $ .   & m T &.  M R ....E E ..Y ..y E E Y V ..R E z j Q z E ..y +.*.#.$.Y Y =.Y +.y D 9 -.j / * | j E U Y ;.L x F [ ] ) ^ % ",
"$ % < $ 8 S _ % / k y =.$.>.+.Y $.$.Y y Y ..U F +.$.Y ,.'.+.+.+.$.=.$.#.$.$.#.>.*.#.*.>.+.E ).!.{ [ e # M =.~.Y l {.> 8 { ! > % ",
") ) ! d ! ].) p F M ..=.=.=.=...Y +.+.y U ..* j ^.#.+.#.#.$.>.*./.+.=.+.+.../ '.(._.:.>.$.+.k = | <.. k =.$.=.;.V r + : ] ] > > ",
"> ! , , p , ' j M z R V ..+.=.=.=...=...E =.{.(.[.[._.}.|.1.2._.[.>.-.z 3.< 2 y #.:.4.:.$.$.Y M y 4 z y =.>.+.$.$.V | | / , , ) ",
"> ) , / ' / | k | L F ) [ y +.=.Y l | U Y #._.2.2.2.2.5.6.7.7.8.9.|.0.a.y T / U #.b.[.#.#.$.#.c.>.(.(.>.>.>.+.+.Y V x F 5 5 ] { ",
") ! , | c 5 l j l Y Y j 2 d.M E ) e.> Y Y f._._.b.2.4.2.1.g.h.9.9.1.}.( p i.k 2 ) +.(.#.(.(.*._.:.(.*.#.j.>.+.=.Y R D D F ' ] ) ",
"! | j F F j L z z +.$...| Z [ 0 m 2 U $.>.*._.:.b.1.5.5.5.k.l.l.9.2.m.p 4 n.o.p.V *._.(.*.*.#._.b._._.(.(.@.#.U | U Y V | ' ! ! ",
") , z x p < / k R >.$...E ).q.e g p.E $.*.(.*.4.1.g.5.9.5.1.h.l.r.7.1.^.>...y s.(.}.4.}.:.#.*.*.>.+.+.>.y M j & = | Q Q 5 { ! ! ",
") / | / % . > l R +.E < _ : t.e u.i * U +.#.*.(.4.|.1.1.2.^.1.v.7.7.5.1.g.2._.}.b.m.:._.:._.>.c.c.=.E F > > % &.9 & A ! / ! , { ",
"! / / 5 [ & 4 z y R U ! w..   & i x.y.+.(.*.#.#.4.*.Y >._.}.1.z.5.7.v.5.8.2.4.2.:._.+.#.*.*.(.>.#.$.E z p.a + '.A.B.v > ! { ) % ",
") / F x L | L ..=.=.=.R d % V Y C.>.*.(.(.#.*.(._.0 D.y #.[.(.}.|.8.g.g.9.}.b.k.b.b.#.*.E / E.#.$.+.y z | b 2 F.a.v <.> { , ] ! ",
") , | x D Y C.R ....*.Y Y +._._.*.*.*.>.*.*.$.$.y G.H Y *.:.(.}.z.5.5.9.2.2.}.m.}.}.(.$.1 k ....+.V E U M | ! > _ $ ) , ! ! ) ~ ",
"! / | L U Y c.Y y ..#.#.c._.(.(.$.*.:.*.#.>.z } C H.-.p p Y >.*.4.9.k.1.|.z.1.4.y w @.k I.z ! k Y R ..;.Q M F 5 F 5 | ' / , { { ",
", F l z y U C.+.>.>.*.#.b.b.#.#.+.+.#.(.*.*.@.} J.K.L.M.) Y >.#.:.[.2.1.5.5.5.k.b.& 5   1 ( 7 k R y =.=.Y ;.y V U F ' , p ] ] { ",
"/ F l x x U Y +.$.+.>.+.(.:.:.(.>.>._.:.:.m.:.K.} s.D.0 N.+.>.>.(.(._.O.}.h.P.5.9.*.D.i.7 & ..Q.=.=.Y #.E.=.Q./.V U l / p , ] ] ",
"' | l x U x E d ! Y +.C.x *.*.(.*.4.4.:._.(.:.}.>.=.Y +.$.Y c.+.+.Y R.S.y.8.5.r.7.5.9.>.y >.#.$.+.=.>.#.T.Q.C.C.y D L / , , ! { ",
"! | L U V Y U l ( ) y > & #.^._.(.m.k.b._.b.^.*.(.*.U.>._.T.$.+.>.$.0 -._.g.5.P.V.7.h.8.k.:.>.>.$.>.$.=.=.U U D D 5 / , $ $ ! ) ",
"].| x D x y ..x ) u.0 q l =.$.[.:.(._.b.k.2.|._.(.#.>.>.:.b._.+.=.+.R E *.b.g.5.r.8.9.W.k.|.:.*.=.Y ..y C.x | , l , L X.e ! ] ) ",
"_ ] l z M U U p.b Y.. Z.`. +Q.*.(.(._.k.4.2.1.k.(.$.+.=.#.:.*.>.....=.+._..+1.9.8.8.7.r.2.|.z._.*.j / Q j < m ! | ++l > ) ! ! ) ",
", _ % l E U E [ e T Z.S Z.R.*._.(._._._.:.:._.b.>.+.+.y _ $.#.~.C.y.>.(.*._.b.9.9.1.5.l.h.8.h.k._.... | p @+$ l F / 5 | , , ! , ",
") , % < z y y Y k p., % Q.>.#.*.(._.$.k R +.3.>.,.$.=.Y p./ +.Y ;.Q.+.(.$.Y >.2.#+1.W.7.r.7.5.b._.$.[ 9 * e / d c ' F l x 5 , ] ",
"> ! ' ) V Y C.*.>.=.Y =._.(.s.>.*.*.>.D.( y +.+.+.>.+.U z j ..Y y y D._ y Y +.>.b.4.z.9.h.g.h.g._./ l   ).% $+)./ l l x l / ' ' ",
") / | %++.Y ..@.+.=.'.*.#.*.#.*.>.+.Y +.&+b Y *+=++.>...V y y y C.E n.-+[ y Y p.>.*.j.}.z.8.1.2.k.C.! b > S.g / j | | | x L | ! ",
", 5 | D $.=.y ~.R R y +.+.*.:./.c.z i n._ 2 *+( } y.$.~.=.y y V U ! _ ).&.{.* S.+.>.*.(.m._.b.9.#+b.>.c...r z Q R D l x ;.x / ! ",
"d | | z Y V y E l z Q +.$.>.>.+.Y +.n.1 d ( d x.+.$.+.;.+.R U Y y 0 ;+e.P -.e.0 ++U $._._._.g.W.1.|.}.(.#.+...U x E | x l , ] ) ",
"! | | | x z z k j | k U +.*.:.#.Y +.+.0 | z y Y #.#.+.>.+.y Y ..l k >+e n A a i g Y *._._.m.#+g.g.k.(.*.#.+.Y ..Q | | F / ! ! ) ",
"{ ' 5 | | d 4 / [ ,+4 E =.$.#.*.>.+.>.c.+.>.(.*.#.>.(.$.=...C.C.Y l ,+| , ! * Z.U $.*._.*.k.'+)+z.z.(.j.*.#.$.x / / ' ! # ) ) ) ",
") / / / ) k A > p !+[ x =.$.=.$.~.>._.#.#.(._.#.#.#.>.$.>.Y R.Y +...j | l y Q x Y #.#._._.m.~+)+z.z.:.*.*.#.=.d 9 {+) u = ] ! ) ",
"! , / , % . ]+* h b * , V ..Y #.#.(.>.$.>.*.(.+.=.+.$.(.*.+...Y #.=...V ;.>.#.*.:.(.*._.b._.:.(.k.4.m.:.:.(.=.F ! j + ).K ) ] ) ",
"% , , / / i.A : 0 i.` b l V y Y >.+.=.>.>.+.#.>.x y +.>...U x =.=.Y C.=.>.+.*.4.k.:.(.*.>.*.*./.+.E.(.(._.*./.;., z ^+e S ~ ! % ",
"> ! ] , ! ]+) ~ ! r p.k D ....=.=.Y #.(.#.c.+.Y 4 < Q V , <./ ..=.c.~.$.=.=.(.4.4.4.(.$.z +.+.n.E ..>.$.#.$.~.~.z ' . T W F ] ) ",
"> ) ! ] ] ) ' ' r l F F U y +./.x ..+.=.=.Y L / F /+, (+A.[ C.Y =.~.C.R ;.;.$._.$.=.$.$.* z x [.z >.>.>.#././.+...F d ) ] ' , ! ",
"< ) ' / | / l E D R R R Y Y Y D % ' E V U E R S.& _+  i Z.| | =.$.#.U y ..D ..=.+.;.j k k ! j 3.j ~.>.#.*.#.#.T.U D x l ' ' / W ",
") , ' / | | l y Y =.=...;.V U l F < x ..Q.+.Q.L J 7 8 :+_ <.. D +.;.R Y >.+.Q.$.$.$.+.S. +n.k G.@ ) +.:._.#.#.T.=...x r c ! ) < ",
"! { / L | k l V ..Y ....y y <+y D | x C.*.>.=.Y d * ]., < % x U V ..~.$.>.$.~.#.[+(.:.y.Z.p Q * = Y >.*.(.$./.;.=.V F C 5 ] { ) ",
") ! ' / / / / D V y R L C.V R y ..Y Q.=.>.+./.#.+.Q R ..Q R U R U Q.Y U R V y +._.(.#.*.+...Y R *.>.*.#.#.$.Q...y Q F   + % ! > ",
"[ , ] / / / | l l j M x x D U Y C.>.*.*.>.=.$.#.>.+.Y C.U V y ;.D D ! > M y Y >.}.*._.:._._.#.$.>.#.$.$.Q.=.R =.U l L $ }+! ! > ",
"d ' 5 L | , ) G , / / = L L x +.=._.:.:.>.$.$.+.>.+.;.Y Y ..=.U E , % j / ..$.#.(.(._.4.:.4.*.#.*.$.$.+.=...D U l F F | ! , {+_ ",
") , | l / ! ! T a ) 8   | l U c.>.^.(.>.=...Y Y $.$.$._._.=.R % + % b -.| y +.(.:.:.#.#.*._.*.(.(.#.Q.y U D 5 l | | | | 5 , ) ) ",
"> ! , , ' , ! ) |+  w.* }+p.V =.+.$.Y R y Y R D ;.>.#.#.(.$.Y E 8 A.z , D ;.=._.(.$.(.T.T.#.(.:.(.#...x L / . ' F 5 / 5 5 5 ) W ",
", / ! , , ! #   8 J 1+2+q l Y Y ;.y y Q x z ! [ C.Y #.>.$.#.>.=.x . M L U E +./.~.Y ~.$.#.(.T.$.$.;.d > / i a ) . 3+$ / , , ) > ",
", ! [ ! , [ > a u.i 8 * p j C.=.Y E / $ ! ! > / Y +.>.#.>.>.b.(.*.Y L U ;.+.>...D x / Q $.*.$.+.E.Y x 2 4+e.q 5+Z . ! 4 , ! ) ) ",
"> ) , ! d , | / _ ! , F z x R ..R j ! &.-.* G.p j Q =.=.=.+.#.+.$.=.C.Q.Y Y E R z , 8 z ..#.$./.(.y R U /+6+f 7+i % {./ / , ) ) ",
"< > ) , , / / / | | k D ..;.Y D L [ . * ` & 8+. i j U ../.#.>.$.Q.+.$.~.V E b ! | ).Z.D ..Y +.E l R V U / > + A.7+= / 5 ! b > > ",
"* < > ) , , ! ! / k l x ..V U D x k c   4 b Q a x E y Y Q.Q.=.$.=.R ;.U Q R M ).% |+> / | y =.x D y l F | | / > ! ' / ! ! ! > ) ",
"% 3 % ) & > ! / / r | z x x L M U x {.p > p { / y y R ..R ;.;.Q.V R U ..U y V , 9+Z % 7+& j y y R D l j D L L F / ) , / , ! > > ",
"& $ % >   /+< ! p 4 r / | / E E x z / ) ! | L D R V U j l U x M j U x R z | j E & = # ) x E V =.y z y x x U F k / ! ! ! $ ) < > ",
"& % % G =     K J > | | | k | j , l | F L y U E U D x L = _ / i [ x x M x l j L F l | j U U L x x z D x x z | / / , ) /+S & < & ",
"$ & > 2 e ( . 0+i ! 5 4 5 , ! ' ! ) ) M x j F l U x l L _ m * <.| 4 | l F z z M l x D C.U R L l d F / & | l | | | | % ;+m i % < ",
"= $ > _ ; a i i [ p 5 / c ] & q - e ) / k / / / l F / , , a+A.+   2 b+F F | x V D Q D U D r | 5 2 c+/+= / | 4 / l | % S i > > > ",
"= & & ! _ & > > ) , / , , ! ) . a+8 ! ) ) ! ! ! l x , ) , d.Z.8 a+[ , k / , l | l V U L x L | ] < }+2 ! ! , ! , ' / ) & > _ < > ",
"* > _ > ) {+) > ) ! ! ! ! ! ! , $ % ~ > > ~ > { , ' ) > > % & = > ! ! ! ! 5 | F , / F | / / , , , ) ! / ) ! ) ! ! , ) < [ ! ! < ",
"* < % % > < % % > ) % ) ) ) ) ) % > < > > ! ) > _ ! _ > > $ * % > _ ) ! ) ! ! _ ] , ] / 5 / , ! , , ! / ) { ! , ! ) _ W ) > # . ",
"7 = . = # * * # . # * & * = # # # = # # = * = = & > X.* $ = = & * * & < % % & $ ~ > > > ) ) ) < & % % > % ~ > & & & & & $ = .   "};
