/* XPM */
static char * ground_xpm[] = {
"32 32 260 2",
"  	c #3B5F1A",
". 	c #3C601B",
"+ 	c #3F651B",
"@ 	c #3D631B",
"# 	c #41661B",
"$ 	c #41671C",
"% 	c #40661B",
"& 	c #527721",
"* 	c #43681C",
"= 	c #3E631B",
"- 	c #3D631A",
"; 	c #3B601B",
"> 	c #3F631C",
", 	c #43691C",
"' 	c #3B611B",
") 	c #42671C",
"! 	c #42671B",
"~ 	c #3C611A",
"{ 	c #41671B",
"] 	c #395E1B",
"^ 	c #466B1C",
"/ 	c #4B701E",
"( 	c #3A5F1A",
"_ 	c #395D1A",
": 	c #3B601A",
"< 	c #34581A",
"[ 	c #456A1C",
"} 	c #4A6F1E",
"| 	c #42681D",
"1 	c #496F1E",
"2 	c #4B711F",
"3 	c #4B701F",
"4 	c #557A22",
"5 	c #456A1D",
"6 	c #476C1D",
"7 	c #476D1D",
"8 	c #41681D",
"9 	c #4E7220",
"0 	c #43691D",
"a 	c #3F641C",
"b 	c #3E641C",
"c 	c #456B1D",
"d 	c #456B1C",
"e 	c #42681B",
"f 	c #446A1C",
"g 	c #385D1A",
"h 	c #4E721F",
"i 	c #547922",
"j 	c #486E1E",
"k 	c #4C721F",
"l 	c #4D731F",
"m 	c #446A1D",
"n 	c #49701E",
"o 	c #466C1D",
"p 	c #486D1E",
"q 	c #446B1D",
"r 	c #4C711F",
"s 	c #43681D",
"t 	c #41671D",
"u 	c #476D1C",
"v 	c #40661C",
"w 	c #4F7520",
"x 	c #507620",
"y 	c #567A22",
"z 	c #4E741F",
"A 	c #476D1E",
"B 	c #4A7020",
"C 	c #507621",
"D 	c #446A1E",
"E 	c #4D7320",
"F 	c #42691E",
"G 	c #496F1F",
"H 	c #4C7220",
"I 	c #466C1F",
"J 	c #476E1F",
"K 	c #4E7420",
"L 	c #476D1F",
"M 	c #466C1E",
"N 	c #4B721F",
"O 	c #40661D",
"P 	c #3F651C",
"Q 	c #4D721F",
"R 	c #5A7F24",
"S 	c #466D1E",
"T 	c #49701F",
"U 	c #4C7320",
"V 	c #4A711F",
"W 	c #4A701F",
"X 	c #41681E",
"Y 	c #456C1D",
"Z 	c #517620",
"` 	c #41681C",
" .	c #3E641B",
"..	c #385D1B",
"+.	c #587C22",
"@.	c #557922",
"#.	c #517622",
"$.	c #567A23",
"%.	c #4F7521",
"&.	c #537823",
"*.	c #557A23",
"=.	c #527722",
"-.	c #507622",
";.	c #517621",
">.	c #537821",
",.	c #496F20",
"'.	c #527822",
").	c #4E7320",
"!.	c #446A1F",
"~.	c #42681C",
"{.	c #41661C",
"].	c #547921",
"^.	c #4E7521",
"/.	c #537822",
"(.	c #4E7421",
"_.	c #4D7321",
":.	c #4D7421",
"<.	c #527821",
"[.	c #4C7221",
"}.	c #4C7321",
"|.	c #547A23",
"1.	c #4A7120",
"2.	c #446B1F",
"3.	c #4B7120",
"4.	c #4C731F",
"5.	c #4F7621",
"6.	c #517720",
"7.	c #517721",
"8.	c #587D23",
"9.	c #577C23",
"0.	c #4E7520",
"a.	c #4E731F",
"b.	c #4C7120",
"c.	c #547822",
"d.	c #5C8024",
"e.	c #5C8025",
"f.	c #567B23",
"g.	c #486F20",
"h.	c #537921",
"i.	c #597E23",
"j.	c #5B8024",
"k.	c #456C1E",
"l.	c #577C22",
"m.	c #476E1E",
"n.	c #4B711E",
"o.	c #4F7420",
"p.	c #4D7420",
"q.	c #4B7220",
"r.	c #43691E",
"s.	c #486F1F",
"t.	c #587E24",
"u.	c #587C24",
"v.	c #4C7420",
"w.	c #4B7121",
"x.	c #497020",
"y.	c #4E7422",
"z.	c #577D24",
"A.	c #547A21",
"B.	c #547A22",
"C.	c #567C23",
"D.	c #507721",
"E.	c #486E20",
"F.	c #5A7E24",
"G.	c #537922",
"H.	c #446B1E",
"I.	c #567C22",
"J.	c #567B22",
"K.	c #4A711E",
"L.	c #4E6A20",
"M.	c #4C6F20",
"N.	c #486E1F",
"O.	c #466C20",
"P.	c #5E8226",
"Q.	c #4F7620",
"R.	c #517722",
"S.	c #517822",
"T.	c #545E21",
"U.	c #547222",
"V.	c #577D23",
"W.	c #597E24",
"X.	c #476E20",
"Y.	c #577B22",
"Z.	c #507521",
"`.	c #496E20",
" +	c #4D741F",
".+	c #507520",
"++	c #486D1F",
"@+	c #466D1F",
"#+	c #4A7121",
"$+	c #557B22",
"%+	c #40661E",
"&+	c #466B1F",
"*+	c #42691D",
"=+	c #42691F",
"-+	c #456B1F",
";+	c #486F21",
">+	c #557B23",
",+	c #526220",
"'+	c #4F6E1F",
")+	c #537923",
"!+	c #456B1E",
"~+	c #526721",
"{+	c #4F7020",
"]+	c #527720",
"^+	c #4B7020",
"/+	c #436A1E",
"(+	c #4A701E",
"_+	c #5A7E23",
":+	c #41661E",
"<+	c #476C1E",
"[+	c #456C1F",
"}+	c #466D20",
"|+	c #4D7220",
"1+	c #42681E",
"2+	c #456A1E",
"3+	c #4C6E20",
"4+	c #4E6A21",
"5+	c #3F651D",
"6+	c #4F6A20",
"7+	c #505A1F",
"8+	c #486F1E",
"9+	c #41671E",
"0+	c #3E641E",
"a+	c #42671E",
"b+	c #4F7421",
"c+	c #3E641D",
"d+	c #3D641E",
"e+	c #3C611E",
"f+	c #3F641D",
"g+	c #42681F",
"h+	c #44621E",
"i+	c #47591D",
"j+	c #3F661E",
"k+	c #40641C",
"l+	c #3D631D",
"m+	c #466A1F",
"n+	c #3F641E",
"o+	c #3D621E",
"p+	c #3E631E",
"q+	c #476B1F",
"r+	c #3F651F",
"s+	c #41601E",
"t+	c #455A1D",
"u+	c #3D621D",
"v+	c #3A5F1C",
"w+	c #385C1C",
"x+	c #3A5D1C",
"y+	c #3C611D",
"z+	c #3A5E1D",
"A+	c #375B1D",
"B+	c #3B611D",
"C+	c #3F651E",
"D+	c #395D1D",
"E+	c #3B5F1D",
"F+	c #3D631E",
"G+	c #3A5E1E",
"H+	c #40661F",
"I+	c #3A5E1F",
"J+	c #3B601E",
"K+	c #35571D",
"  . + @ # $ % & * = @ - ; > , ' ) ! ; ~ ! { ] - % ^ / ( _ : ( < ",
"! [ } | 1 2 3 4 5 $ , 6 | , 7 8 9 9 $ 0 a b b c 7 d e = f ) @ g ",
"3 h i 3 j } k l 0 m n 0 c o m j j p q r s t o u m $ v f , { v j ",
"w x y z A B C B D A E F G j | H I D J K L M N c t O 8 1 v P ) 3 ",
"x k Q k l & R H k 2 S J T N l k U V J J j 2 W X A Y 0 Z c `  ...",
"+.@.#.$.%.E &.*.%.=.*.-.G W E 4 ;.E T >.x H ,.E '.).J !.m m ~.{.",
"].w ^./.(._.:.<.(.x 4 U [.}.(.|.%.K =.C 4 i 1.K '.E T 2.H 3.M E ",
"E V 4.k %.E V E 5.;.6.V E K ^.(.4.7.8.3.9.4 1.0.^.E l A a.b.A c.",
"j T K U d.R 0.l e.f.g.0.(.h.i.5.V -.j.w w 3.k.8.%.%.l.x m.T n.V ",
"o.W L k w W t U C w (.p.K %.-.K E ^.x 0.7.=.E w p.p.K E N W M t ",
"K 2 W n 2 j 0 V k C >.K 7.C H C (.U 0.0.x 5.U U 7.w N w 4.q.L r.",
"K K w s.K C 5.H U <.t.U u.f.v.].w.x.0.7.^.q.y.p.z.i 2 A.p.E U N ",
").N K z h.B.h.C.C 5.5.D.E.w.^.B U K K F.G.<.8.p.^.p.q.H.s.H z I.",
"J.'.K K l.>.3.C %.p.1.D.p.(.C U K 0.5.,.E C 7.H ,.T K.s.*.o.A W ",
"& C p.W i C T D.w p.H 4 C ^.%.w C 6.5.w.E K %.L.M._.E N >.K s.N.",
"B 3.E O._.p.7.-.5.^.^.P.'.0.%.%.f.I.Q.R.S.w 0.T.U.'.0.C K p.E s.",
"o.K K K k <.R p.s.1.U p.p.'.V.w (.E ^.W.&.p.B.X.J 1.4.K 1.H 7.x ",
"Y.Z.`.p.k w ;.K E :.E J U 5.C w T G %.<.C %.w }.'.%.I N.U p. +H ",
"& 3 L H q.3.H 7.%.p.p.N.x.q.K K 1.G K K ;.7.p.K 7.K J T C .+E M ",
"++s.l K J @+X.l.5.p.^.w X.g.#+N 5.0.U (.4 $+K E K p.p.%.$+h.2 %+",
"&+*+,.8.w p.0.K K G =+D.w ^.0.p.w W -+0._.U 0.K J ;+ +K 0.p. +E ",
"=.K k .+C '.9.4.^.p.}.w z.>+w ,+'+K U 9.)+(.5.C (.}.1.$+K 1.!+j ",
"(.k K ;.x ;.>.p.C C 0.5.>+B.w ~+{+%.0.4 '.U q.>+w U V ]+k 3.^+/+",
"^+(+R.4 w 4.E k *.].%.0.%.0.0.w ^.0.Q.5.%.q.I _+Q._.k N 2 ;./.:+",
"<+[+!+t 3.x J.K 4 =.G K 2.J %.(.4.R.J.p.U E E U @+}+1.2 }+!.D o ",
"s m |+G N 1.,.N E U n E 2 C 9.p.4.0.K !+K x U J s.q.V k T m.!+%+",
"1+2+H 2 1 Y @+T W 3+4+C E C B.4.W q.H I E l U [+T E w N G N.-+5+",
"m | D j !+A 2 0 N 6+7+J.w 2 U 0.@+X.1.H T x.U J 8+K 4 2 S 9+0+D ",
">.b.s & a+5+H.D [+G K J H H J J x.H G.X 9+2.W b+j D c+k.H L d+e+",
"5 5 3 1 f+r.2 A O r.T T j 0 %+2 j !+g+H L 0 1+m.2.h+i+j+1+F m t ",
"a k+5 !+l+a m+| n+5+a+N.9+c+o+D D 1+p+q+-+t r+r.c+s+t+%+u+%+| f+",
"v+w+x+{.y+z+A+B+C+p+D+!+e+E+F+G+0+H+0+I+e+0+0+H+e+J+e+-+0+p+y+K+"};
