/* XPM */
static char * ground64_xpm[] = {
"64 64 482 2",
"  	c #395A1A",
". 	c #355919",
"+ 	c #37591A",
"@ 	c #3C601B",
"# 	c #3E621B",
"$ 	c #3D611B",
"% 	c #3C5F1A",
"& 	c #3C601A",
"* 	c #40641B",
"= 	c #43661C",
"- 	c #507321",
"; 	c #507320",
"> 	c #476A1E",
", 	c #3C611B",
"' 	c #3C5F1B",
") 	c #3B5E1A",
"! 	c #385B1A",
"~ 	c #3F631C",
"{ 	c #42651B",
"] 	c #41651C",
"^ 	c #395C1A",
"/ 	c #395D1A",
"( 	c #44681D",
"_ 	c #43671C",
": 	c #3A5D1A",
"< 	c #385C1A",
"[ 	c #3A5E1A",
"} 	c #43671D",
"| 	c #3B5F1B",
"1 	c #3D601B",
"2 	c #3F631B",
"3 	c #476B1D",
"4 	c #496D1E",
"5 	c #46691D",
"6 	c #385B19",
"7 	c #385C19",
"8 	c #375A19",
"9 	c #365919",
"0 	c #395C19",
"a 	c #335519",
"b 	c #325318",
"c 	c #3C5E1B",
"d 	c #385D1B",
"e 	c #395E1B",
"f 	c #3F651B",
"g 	c #41661B",
"h 	c #40651C",
"i 	c #3E641C",
"j 	c #3F641C",
"k 	c #40661C",
"l 	c #43691C",
"m 	c #3F651C",
"n 	c #45691D",
"o 	c #537721",
"p 	c #496E1E",
"q 	c #3E641B",
"r 	c #3C621C",
"s 	c #3B601C",
"t 	c #3A5F1C",
"u 	c #41671C",
"v 	c #436A1C",
"w 	c #3D631C",
"x 	c #446A1D",
"y 	c #456C1D",
"z 	c #3B611B",
"A 	c #3E631B",
"B 	c #40651B",
"C 	c #466C1D",
"D 	c #466B1D",
"E 	c #3D631B",
"F 	c #3A601B",
"G 	c #3A601C",
"H 	c #42681C",
"I 	c #42681B",
"J 	c #4C711E",
"K 	c #496D1D",
"L 	c #3A5F1B",
"M 	c #395F1A",
"N 	c #3C611A",
"O 	c #355A1A",
"P 	c #34581A",
"Q 	c #41651D",
"R 	c #476D1D",
"S 	c #496F1E",
"T 	c #476C1E",
"U 	c #41681C",
"V 	c #466B1E",
"W 	c #4B701F",
"X 	c #466C1E",
"Y 	c #4A6F1F",
"Z 	c #557922",
"` 	c #557A22",
" .	c #40661D",
"..	c #42691C",
"+.	c #43691D",
"@.	c #456B1D",
"#.	c #43681D",
"$.	c #44691C",
"%.	c #466D1D",
"&.	c #456A1E",
"*.	c #517621",
"=.	c #42671D",
"-.	c #41661C",
";.	c #41671D",
">.	c #3C621B",
",.	c #446A1C",
"'.	c #456B1C",
").	c #476C1D",
"!.	c #3D621B",
"~.	c #43681C",
"{.	c #385D1A",
"].	c #44671D",
"^.	c #4C711F",
"/.	c #4F7420",
"(.	c #436A1D",
"_.	c #496D1F",
":.	c #4E741F",
"<.	c #4C721F",
"[.	c #4E731F",
"}.	c #567A22",
"|.	c #577C23",
"1.	c #40671C",
"2.	c #4A701E",
"3.	c #42681D",
"4.	c #496F1D",
"5.	c #496F1F",
"6.	c #456B1E",
"7.	c #41661D",
"8.	c #3B611C",
"9.	c #3D621D",
"0.	c #3F651D",
"a.	c #40671D",
"b.	c #40661B",
"c.	c #496E1D",
"d.	c #476D1C",
"e.	c #3F641B",
"f.	c #3D631A",
"g.	c #517620",
"h.	c #4A6E1F",
"i.	c #4D731F",
"j.	c #4D721F",
"k.	c #4C721E",
"l.	c #537921",
"m.	c #547922",
"n.	c #486E1E",
"o.	c #44691D",
"p.	c #486F1E",
"q.	c #547822",
"r.	c #476D1E",
"s.	c #3C621D",
"t.	c #40671B",
"u.	c #41671B",
"v.	c #486E1D",
"w.	c #4D7020",
"x.	c #4B711F",
"y.	c #577A22",
"z.	c #597D23",
"A.	c #4E7320",
"B.	c #4A711F",
"C.	c #43681E",
"D.	c #4A701F",
"E.	c #40651D",
"F.	c #476E1E",
"G.	c #466C1C",
"H.	c #3F661C",
"I.	c #4E7220",
"J.	c #4B711E",
"K.	c #587C23",
"L.	c #5B7F24",
"M.	c #577B23",
"N.	c #43691E",
"O.	c #436A1E",
"P.	c #4D7320",
"Q.	c #49701F",
"R.	c #446A1E",
"S.	c #3F661D",
"T.	c #446B1E",
"U.	c #486E1F",
"V.	c #4F7520",
"W.	c #40661E",
"X.	c #496E1F",
"Y.	c #41681D",
"Z.	c #3D631D",
"`.	c #466D1C",
" +	c #3E631C",
".+	c #50741F",
"++	c #507520",
"@+	c #527821",
"#+	c #4E7420",
"$+	c #527621",
"%+	c #547921",
"&+	c #527721",
"*+	c #4C7220",
"=+	c #4A7120",
"-+	c #456C1E",
";+	c #476D1F",
">+	c #476E1F",
",+	c #456B1F",
"'+	c #42691D",
")+	c #41681E",
"!+	c #476B1E",
"~+	c #4D7420",
"{+	c #567B22",
"]+	c #5A7E23",
"^+	c #587D23",
"/+	c #4D741F",
"(+	c #4C7320",
"_+	c #49701E",
":+	c #50751F",
"<+	c #507221",
"[+	c #587D24",
"}+	c #4B721F",
"|+	c #466D1F",
"1+	c #466D1E",
"2+	c #486F1F",
"3+	c #507620",
"4+	c #557724",
"5+	c #507521",
"6+	c #4B7120",
"7+	c #4D7220",
"8+	c #537822",
"9+	c #507621",
"0+	c #4F7521",
"a+	c #486F20",
"b+	c #4E7421",
"c+	c #497020",
"d+	c #517721",
"e+	c #577924",
"f+	c #597E23",
"g+	c #577C22",
"h+	c #557A21",
"i+	c #4B7220",
"j+	c #567B23",
"k+	c #507720",
"l+	c #446B1D",
"m+	c #567923",
"n+	c #567A23",
"o+	c #537922",
"p+	c #4E7520",
"q+	c #4E7521",
"r+	c #577C24",
"s+	c #577D23",
"t+	c #557A23",
"u+	c #547A22",
"v+	c #537821",
"w+	c #507322",
"x+	c #4C7321",
"y+	c #517821",
"z+	c #5E8325",
"A+	c #5E8225",
"B+	c #517722",
"C+	c #4C731F",
"D+	c #4E7121",
"E+	c #608426",
"F+	c #608427",
"G+	c #446C1E",
"H+	c #537820",
"I+	c #4C7021",
"J+	c #4A7020",
"K+	c #567C23",
"L+	c #517622",
"M+	c #4D7321",
"N+	c #4D7421",
"O+	c #4C7221",
"P+	c #597D24",
"Q+	c #507721",
"R+	c #527722",
"S+	c #4A6D1F",
"T+	c #557B23",
"U+	c #5F8326",
"V+	c #5E8326",
"W+	c #5D8126",
"X+	c #5B8024",
"Y+	c #587D22",
"Z+	c #486C20",
"`+	c #618526",
" @	c #5F8426",
".@	c #5D8226",
"+@	c #597E24",
"@@	c #5A7F24",
"#@	c #4F7621",
"$@	c #4A711E",
"%@	c #4C6F21",
"&@	c #567B24",
"*@	c #527720",
"=@	c #42681E",
"-@	c #466C1F",
";@	c #3E631D",
">@	c #3E641D",
",@	c #4D7021",
"'@	c #496F20",
")@	c #567C22",
"!@	c #4C7420",
"~@	c #557B22",
"{@	c #507622",
"]@	c #466D20",
"^@	c #4A7220",
"/@	c #517720",
"(@	c #4E7221",
"_@	c #4F7421",
":@	c #476E20",
"<@	c #4F7221",
"[@	c #5A7E24",
"}@	c #577B22",
"|@	c #537623",
"1@	c #527822",
"2@	c #4F7620",
"3@	c #547A21",
"4@	c #567823",
"5@	c #4B7121",
"6@	c #456C1F",
"7@	c #487020",
"8@	c #497120",
"9@	c #4C7020",
"0@	c #4A6F20",
"a@	c #486E20",
"b@	c #4F7222",
"c@	c #5D8125",
"d@	c #526220",
"e@	c #516120",
"f@	c #516920",
"g@	c #4A6E20",
"h@	c #436A1F",
"i@	c #5F8327",
"j@	c #597E25",
"k@	c #555E20",
"l@	c #535C21",
"m@	c #546820",
"n@	c #4B6E21",
"o@	c #476D20",
"p@	c #486E21",
"q@	c #4A7121",
"r@	c #5B7F25",
"s@	c #5B8025",
"t@	c #4F7321",
"u@	c #536120",
"v@	c #526020",
"w@	c #516820",
"x@	c #4E7321",
"y@	c #517422",
"z@	c #547623",
"A@	c #4C7120",
"B@	c #567723",
"C@	c #446B1F",
"D@	c #557723",
"E@	c #42671E",
"F@	c #446A1F",
"G@	c #4B7021",
"H@	c #4D7022",
"I@	c #42691E",
"J@	c #4A6D21",
"K@	c #40651E",
"L@	c #41671E",
"M@	c #496C21",
"N@	c #42691F",
"O@	c #496C20",
"P@	c #446A20",
"Q@	c #4D6F22",
"R@	c #506D20",
"S@	c #516D21",
"T@	c #517021",
"U@	c #5C8025",
"V@	c #535D20",
"W@	c #535E20",
"X@	c #536621",
"Y@	c #43691F",
"Z@	c #537523",
"`@	c #535F20",
" #	c #516720",
".#	c #4E7122",
"+#	c #547821",
"@#	c #4F7020",
"##	c #4F7021",
"$#	c #4E7120",
"%#	c #517822",
"&#	c #4C6E20",
"*#	c #5C8125",
"=#	c #5E8226",
"-#	c #3F651E",
";#	c #537722",
">#	c #41661F",
",#	c #486B20",
"'#	c #587C22",
")#	c #46691F",
"!#	c #537923",
"~#	c #43661E",
"{#	c #5A7E25",
"]#	c #3E641E",
"^#	c #3E631E",
"/#	c #42661E",
"(#	c #4D7120",
"_#	c #44681F",
":#	c #4E6620",
"<#	c #4F6120",
"[#	c #516620",
"}#	c #44681E",
"|#	c #4F6020",
"1#	c #515B20",
"2#	c #526121",
"3#	c #466A1E",
"4#	c #4E6220",
"5#	c #4F5D20",
"6#	c #516421",
"7#	c #3F641E",
"8#	c #3D621E",
"9#	c #3D631E",
"0#	c #41671F",
"a#	c #3B611D",
"b#	c #3C611E",
"c#	c #42671C",
"d#	c #40671E",
"e#	c #40661F",
"f#	c #3B601D",
"g#	c #4B6D20",
"h#	c #4B6F1F",
"i#	c #466B1F",
"j#	c #4B7020",
"k#	c #44621E",
"l#	c #435E1E",
"m#	c #44611E",
"n#	c #3F641D",
"o#	c #41641D",
"p#	c #4A6F1E",
"q#	c #3E651E",
"r#	c #3F651F",
"s#	c #495B1E",
"t#	c #4B561E",
"u#	c #4A591E",
"v#	c #3E651D",
"w#	c #40631D",
"x#	c #3D631F",
"y#	c #3C621E",
"z#	c #40641E",
"A#	c #485A1F",
"B#	c #485A1E",
"C#	c #3D641D",
"D#	c #3E611D",
"E#	c #3C601C",
"F#	c #3D611D",
"G#	c #3E621D",
"H#	c #3E611E",
"I#	c #3C611D",
"J#	c #3F631E",
"K#	c #3F631F",
"L#	c #3F661F",
"M#	c #3D611E",
"N#	c #3F601E",
"O#	c #3F5E1E",
"P#	c #40611E",
"Q#	c #3A5E1D",
"R#	c #3A5D1C",
"S#	c #3C5E1D",
"T#	c #3A5E1C",
"U#	c #395C1C",
"V#	c #385B1C",
"W#	c #375B1C",
"X#	c #3C5F1D",
"Y#	c #395D1D",
"Z#	c #375B1D",
"`#	c #385C1E",
" $	c #3B5F1D",
".$	c #3A5F1E",
"+$	c #3A5F1D",
"@$	c #3A5E1E",
"#$	c #395D1E",
"$$	c #395E1E",
"%$	c #3B601E",
"&$	c #3F661E",
"*$	c #3B611E",
"=$	c #3C601E",
"-$	c #35581D",
";$	c #35561C",
">$	c #3B5D1D",
",$	c #385B1D",
"'$	c #385C1D",
")$	c #37591D",
"!$	c #395E1D",
"~$	c #3E631F",
"{$	c #41661E",
"]$	c #3B5E1D",
"^$	c #35561D",
"/$	c #34561D",
"  . + @ # $ % & # * * $ & = - ; > , @ % @ ' & & ) ! ! ~ { ] ^ / ' ( _ $ : < [ : @ _ } | ! ! 1 & 1 2 * 3 4 5 6 7 8 9 6 0 : 8 a b ",
"c d e f g h i j k l l k m n o o p j j i m j q q r s t u v l r w f x y m r z i A B C D E F G m q f H I p J K F z L M L , N L O P ",
"Q h h R S T u U V W W X C Y Z ` W  .k u ..+.@.@.#.j j $.%.C k h &.*.*.&.m h =.u -.=.;.A >.w H l ,.'.@.).).$.!.!.-.l ~.A E z d {.",
"].l l ^./.^.(.+._./.:.^.<.[.}.|.W 1.k +.x D 2.S C H 3.).S 4.+.u p |.|.5.+.(.6.+.7.8.9.0.a.u R R R 4.R l u b.f f ,.c.d.e.q f.L L ",
"n ,.@.[.g.[.X V h.i.j.^.k./.l.m.W k 1.@.%.C S n.C o.+.X p.S x x n.o q.5.x x r.X 3.w s.u 3.3.p.R R R X l t.b.u.u.'.v.R b.q q i j ",
"w.x.^.y.z.}.A.A.5.x 6.<.i.<.x.B.6.;.3.W i.W ;.a.x x.Y #. .a.x.x.n.C.C.V r.r.[./.D.E. .r.W D.F.r.(.0.i E.k u G.G.l 1.H.f f @.[.j.",
"I.J.j.K.L.M./.[.5.N.O.x.i.P.Q.p.R. .3.^.:.^.0.S.N.<.x.O.0.0.<.P.n.0.S.T.U.F.V.*.x.W. .X.<.x.R C Y.Z.w 0.1.Y.R `.+.i  +m e.C .+++",
"- j.j.@+m.*.#+[.x.U.U.$+%+&+*+B.U.r.U.=+<.D.6.-+;+*+x.;+X r.<.<.D.-+6.;+U.>+<.<.5.6.,+Q.J.2.R.O.(.R.R.'+)+x J.J D m m u k 3.!+V ",
"- ~+~+j.^.*+P.P.P.<.A.{+]+^+/+~+P.P.P.Q.F.>+>+F.Q.B.x.<.i.i.<.P.(+(+<.Q.>+;+;+r.U.x.D.D._+S Y.Y.x S S 6.(.6.:+:+2.U u H u E e d ",
"<+#+#+:.*+<.P.i.P.P.i.M.L.[+<.}+P.#+~+Q.|+1+>+|+U.Q.B.<.i.P.*+*+(+*+}+U.>+U.|+-+>+<.<.B.B.5.Y.;.R.S 2+x 3.R.3+3+2.u u H H i d d ",
"4+m.%+5+#+5+m.m.*.6+7+*.&+8+@+@+9+0+V.&+&+*.P.A.*+5.a+*+P.b+8+m.&+A.b+}+D.c+*.*.5+#+P.B.U.2+x.x.P.d+*.5.X 6.V ,+&.+.+.+.+.U m j ",
"e+f+K.5+P.5+g+K.*.Q.D.*+P.*.{+h+&+#+/.` |.` V.V.(+>+>+i+~+0+K.^+m.P.P.}+D.c+j+g+m.V.V.D.>+>+i.#+k+` 8+D.X -+w i ;.l+x x x (...H ",
"m+g+{+V.i.9+{+n+9+Q.B.*+(+0+m.o+*.~+#+m.{+m.#+p+(+>+>+i+~+q+r+s+o+P.~+*+6+i+o+t+m.@+@+6+2+2+P.#+9+u+v+D.1+X S.S.N.>+r.-+(.l+@.6.",
"w+~+P.(+(+P./.0+#+P.P.}+B.*+V.p+P.*+P.o+` v+B.B.=+P.P.(+*+x+q+0+p+~+#+v+j+j+i+i+y+z+A+B+6+B.C+#+#+#+i.}+D.D.T.T.x.g.++-++.S &+o ",
"D+}+x.}+<.<.<.*+*+}+C+B.Q.i+~+~+(+}+}+@+h+%+Q.Q.i+q+#+i+(+(+(+~+~+#+~+v+g+g+=+5.d+E+F+d+B.B.(+C+<.(+C+}+B.D.G+6.x.H+g.6.+.W %+Z ",
"I+J+D.(+(+(+*+*+9+K+j+q+*+*+(+~+0+8+8+L+0+0+i+*+M+P.P.0+9+9+N+N+N+x+O+m.P+[+#+6+0+|.M.M+c+=+Q+d+V.}+}+5+R+9+D.D.*+#+<.5.U.<.++++",
"S+r.>+P.V.#+i.P.T+E+U+&+i.#+#+~+u+V+W+M+>+c+V.V.p+p+V.|.f+^+p+0+(+Q.c+}.X+L.d+p+p+0+q+5.-+>+{+g+8+D.Q.o+Y+K.9+V.6+1+F.<.<.}+2.S ",
"Z+-+|+#+V./+C+(+{+`+ @@+P.#+i.~+` U+.@M+>+c+~+V.q+p+p+|.L.+@#+#+*+Q.2+Z @@L.B+0+p+#@0+c+|+>+{+g+8+5.Q.o+Y+g+V.V.B.-+|+<.<.$@S Q.",
"%@D.D.D.5.J+P.<.9+&@t+5.R.;+(+(+9+Z m.O+J+i+p+q+0+0+q+*.d+L+b+q+~+(+(+9+l.l.0+0+V.@+@+M+i+*+Q+d+0+i+i+9+*@*.~+#+*+Y D.Q.Q.1+N.=@",
"D+#+<.-+N.-@P.<.i+x.B.S.8.0.x.(+(+~+~+#+0+p+#+~+#+#+~+}+i+=+(+C+P.~+p+~+~+~+~+p+k+u+u+g.V.p+P.*+P.~+P.P.(+*+*+}+C+P.P.5.1+O.;@Z.",
"D+#+*+;+-@;+i+i+(+*+x.;.>@a.}+(+(+~+#+V.9+0+#+p+/.0+0+(+i+i+N+q+P.b+~+N+p+b+#+V.d+u+u+9+0+~+C+(+~+0+p+P.C+(+~+i.#+P.i.2+F.&.0.0.",
",@}+}+0+5+#+Q.2+B.(+(+=+Q.D.B.}+}+~+p+u+|.T+(+~+d+|.|.9+P.~+o+m.9+'@U.*+p+q+#@#@#@q+~+i+B.=+*+(+9+{+` V.i+C+&+v+d+}+<.B.Q.U.U.5.",
",@i+<.&+@+V.5.U.B.(+~+#+C+(+6+=+}+#+V.K+^+)@(+M+B+f+z.Q+(+!@t+~@{@]@,+6+q+p+#@#@~+=+^@c+Q.=+(+P.d+^+^+V.i+(+l.u+/@}+<.}+}+B.}+*+",
"(@i+}+9+*.p+Q.J+7+0+9+9+9+#@b+b+N+M+#+m.{+u+P.(+{@|.g+9+N+M+&+o+_@]@:@O+q+q+v+d+9+(+i+x+b+0+N+P.9+{+~@V.i+*+@+l.++B.}+*+i+6+P.#+",
"<@B.D.#+#+#+V.#@@+m.m.@+@+o+{+{+@+q+q+p+V.9+9+9+*+;+|+i+~+(+Q.Q.(+~+#+V.0+V.[@f+}@3+#@` ^+|.~+#+#+~+~+P.C+B.-+|+2+Q.B.(+P.d+{+g+",
"- c+D.#+V.p+p+0+d+{+~@@+@+u+{+|.o+p+V.p+p+#@Q+9+i+]@|+O+#+(+Q.Q.(+p+p+p+p+V.z.[@g+3+3+T+^+|.#+~+~+~+b+P.~+Q.T.-+U.Q.6+P.~+d+g+{+",
"|@*.9+0+V.0+#+p+1@^+g+5+~+9+o+u+8+9+0+b+x+b+Q+#@N+J+J+b+#@#+i+i+(+p+p+#@2@#@R+&+1@9+3+o+3@%+(+(+(+i+i+(+(+B.;+1+M+$+*.i+i+b+&+&+",
"4@|.T+9+#+V.p+~+8+@@P+5@|+J+p+9+#@0+V.*+=+i+9+0+9+0+#@#@9+k+0+#@q+q+p+#@2@0+:@6@7@#@#@V.p+0+i+6+a+|+|+i+~+i+=+Q.1@[@^+5.-@|+;+r.",
"4+` ` 9+#+#+P.P.R+P+|.J+-@'@p+V.V.V.p+(+8@O+&+y+9+#+~+b+0+#@V.#@0+#@9+#@2@9+:@;+'@#@2@#@q+0+9@0@0@a@:@i+~+*+D.B.R++@|.5.|+|+;+>+",
"b@=+*+#+#+x.-@,+J+0+/.(+(+~+p+p+p+0+#+~+~+9+c@c@|.N+~+~+#+#+#+#+B+|.|.@+V.0+N+b+0+#@2@q+0+I.d@e@f@v+8+2@~+#+#+#+p+#+~+}+x.5.;+>+",
"g@>+2+P.#+J+h@O.>+~+~+~+#+#+q+V.p+p+~+~+P.d+i@ @j@~+P.#+~+#+#+p+1@f+[@o+#@0+0+9+2@9+V.q+q+<@k@l@m@}.{+d+0+V.0+V.#+}+(+C+C+x.>+>+",
"n@a+Q.q+0+O+o@p@q@b+#+9+&+d+0+0+0+b+~+b+b+9+r@s@j+b+b+q+0+0+0+b+B+|.^+1@#@V.B+R+1@0+0+#@9+t@u@v@w@d+R+#@#+0+0+0+q+M+x@#+p+*+c+c+",
"t@P.P.#+V.#+V.0+#+N+b+{+f+^+#+P.=+2+2+(+~+~+#+~+~+q+V.m.{+|.#+q+p+#+~+P.~+#++@f+|.i+6+@+u+@+:@o@>+a+2+i+(+*+P.P.*+Q.Q.#+3+9+3+3+",
"y@P.#+/+V.#+#+i.*+*+P.j+f+^+~+<.'@>+U.*+C+~+p+q+q+p+0+u+|.|.0+p+p+#+P.(+P.P.z.f+j+6+=+d+~@&+>+>+>+>+a+}+~+~+P.#+*+2+2+#+3+d+/@/@",
"z@&+*.*+6+A@#+P.*+*+~+m.}.u+#+~+i+B.D.*+P.(+i+i+M+0+q+&+u+u+#+p+P.=+J+*+p+#+{+{+o+i+x.9+d+#@Q.Q.*+0+0+i+J+6+6+6+=+D.D.#+V.b+P.A.",
"B@|.Z ,+=@,+*+*+*+~+p+#+p+V.p+p+~+p+#+P.#+i+,+C@U.0+b+0+V.0+0+#@i+C@,+O+0+#@9+2@p+2@#@V.0+0+#+#+@+^+|.5@h@C@-@>+B./+~+V.3+C+B.x.",
"D@j+Z ,+E@F@(+<.(+(+~+~+~+~+V.2@p+~+~+P.P.x.,+,+U.#+b+p+p+q+#+V.*+-@,+*+#+#+b+#+q+9+9+0+#+p+#+#+*.g+{+G@C@C@:@U.6+#+V.0+3+(+Q.Q.",
"H@6+D.D.J+6+P.*+=+Q.Q.2+>+O+n+j+@+P.p+~+#+N+P.P.6+>+o@=+(+(+P.~+~+(+*+P.~+q+#+~+9+j+g+/@#+#+#+#+V.g.9+P.i+i+6+*+9+~@` V.#+D.N.I@",
"J@6.X <.P.P.i.P.J+;+|+6@6@J+|.f+%+#+#+#+#+#@#@p+6+F@C@c+=+=+M+~+p+0+p+#+p+q+#+#+1@+@f+1@V.~+~+P.#+#+q+p+p+~+P.~+@+Y+|.V.#+2+W.K@",
"Z+C@-+6+*+*+5+9+*+a@a@|+-@J+` j+@+N+P.(+x+*+0+0+6+o@o@=+=+J+(+~+p+q+#+N+(+(+#+V.B+|.|.Q+b+b+#+P.~+<.*+P.~+P.P.#+d+{+` 5+#+2+L@W.",
"M@=@=@,+-+*+^+z.8+(+(+~+~+b+#+p+~+~+P.-@N@F@2@2@#@0+0+p+p+p+p+p+p+p+~+2+6@-@0+V.p+(+i+~+p+V.~+~+=+C@C@J+P.~+i./+~+~+#+#+q+~+(+<.",
"O@L@L@T.T.A@z.z.m.~+~+i.~+#+#+p+~+#+P.C@N@P@2@3+V.p+2@#+V.2@#+p+p+p+p+>+6@|+q+V.(+=+=+~+#+0+p+p+i+C@C@c+P.C+C+~+~+i.(+C+C+C+<.C+",
"Q@;+U.5.U.*+` ` @+0+V.d+o+1@#+~+#+#+~+a+o@a@#@2@d+m.u+9+V.V.R@S@T@9+p+=+5.2+1@8+9+i+*+P.p+p+p+p+P.a+2+=+i+i+d+d+V.~+C+J+'@J+=+6+",
"z@9+3+++#+~+P.q+#@d+3+~@^+g+#+~+p+0+p+p+#+b+p+p+u+U@s@o+V.5+V@W@X@/.V.2@V.b+@@@@|.V.0+#+p+#+#+p+q+#@0+i+Q.=+^+g+8+*+B.6@Y@,+>+>+",
"Z@V.V.V.A.#+#+V.2@9+9+}.^+j+q+p+p+p+p+p+q+q+p+V.o+@@@@o+#@/.`@`@ #0+V.0+0+V.+@@@j+V.q+~+#+P.9+9+/.b+#+=+c+=+|.j+@+}+B.|+6@-@r.r.",
".#2+D.A.P.+++#` @+p+p+V.9+0+(+P.#@u+u+9+#+#+p+p+Q+B+d+9+0+0+@###$##+p+#+0+~+%#B+9+p+#+J+2+5@+@L.|.#+#+*+*+(+p+b+i.}+(+d+8+7+E@L@",
"&#T.X P.i.*.K.f+l.p+#+C+(+(+}+P.9+|.j+9+~+q+p+V.#@p+#+p+#+V.p+#+#+#+~+~+p+#+#+#+p+p+p+2+|+a+*#=#P+#+i.*+}+i+}+*+}+x.(+~@g+_@W.-#",
"%@;+;+P.P.#+v+;#9+#+#+q+5+0+<.P.9+|.M.L+q+q+q+p+q+x+(+b+#+0+0+q+q+#+#+0+9+9+#@q+0+q+~+c+:@J+^++@t+6+x.*+*+*+x.}+B.=+6+8+m._@;.>#",
",#T.T.-+,+O.N.=@;+P.i.` '#~@i.~+&+K.|.P.Q.J+~+~+D.Y@h@i+~+q+b+~+C+P.~+8+)@{+q+~+~+P.(+(+(+(+#+P.c+C@F@U.Q.B.B.B.|+N.I@R.T.-@X r.",
")#T.(.T.T.O.=@=@6@(+(+%+'#~@P.~+&+{+~@*+>+J+~+~+c+N@Y@=+#+b+(+~+(+P.P.m.)@|.q+#+N+(+~+C+C+C+~+C+c+C@C@>+Q.x.}+x.U.N.N.O.O.;+r.n.",
")#N.=@F.Y U.-@X U.(+<./.V./.P.P.#+o 8+*+Q.=+#+~+6+U.a@9+m.!#(+(+C+P.P.y+l.v+6+J+*+9+9+#+(+~+B.B.c+>+;+5.B.=+x.}+5.X |+6@6.-@R.N.",
"~#;@-#7+++:.i+D.x.}+6+6.N.-@}+i+<.*+}+*+*+i+~+b+b+(+P.j+[@{##+(+P.~+C+C+(+i+h@h@a+u+u+V.(+(+|+6@2+(+<.i+}+B.2.B.B.x.B.B.5.F@]#^#",
"/#]#W.7+++/.<.^.}+}+2.6.O.-@i+}+6+6+B.6+(#A@/.#+#+(+P.` f++@~+<.(+*+(+<.C+x.N.h@'@o+l.p+i+6+6@T.2+*+*+C+<.x.$@$@D.x.6+D.x.,+>@;@",
"_#+.+.T T n.D.D.n.n.F.U.2+p.p.n.5.*+A@:#<#[#Z ` 1@~+<.#+9+9+#+M+B.;+>+6+*+i+c+'@6+*+P.*+(+}+-@6@>+B.B.Q+l.o+}+B.5.p.>+E@W.W.L@3.",
"}#(.+.3.+.R.r.n.1+6.y 5.B.S 6.T.n.P.7+|#1#2#j+|.v+<.x.}+}+(+P.~+Q.h@F@2+i+6+i+(+i+2+c+6+(+(+|+-+r.2+5.d+m.` }+x.2+1+-+^#9.>@N.T.",
"3#6.R.3.Y.+.D.x.>+,+R.D.x.Q.R.O.p.P.7+4#5#6#1@v+d+P.(+6+i+*+_@V.D.F@R.D.}+i+B.D.U.;+F.Q.(+6+>+2+2+D.Q.9+o+&+2.B.Q.|+-@7#8#]#N.R.",
"- 8+*.#.0.@.*@v+0@8#9#3.R.6.-+T.T.X X A@P.#+F.>+B.#+#+Q.2+U.>+2+5.5.2+b+d+5+N@F@N@0#N@|+Q.6+i.0+*+U.n.=@>@0#-+|+5.P.6+L@]#^#a#b#",
"- q.$+c#i @.v+v+X.a#8#;.R.T.R.R.R.T.-+*+V.0+1+|+D.#+A.Q.F.1+|+;+F.2+5.0+v+R+Y@I@=@d#L@|+Q.6+A.#+*+>+F.L@]#e#6.T.Y P.x.W.Z.9#f#f#",
"g#W h#6.&.p [.[.i#s.Z.6.r.r.-+-+O.=@I@D.<.7+n.U.D.A@x.-@T.F@D.5.5.U.U.5.J+j#U.U.,+I@I@-@;+'@*+*+Y 6.R.k#l#m#=@Y@,+U.;+N.=@W.n#7#",
"o#j f p ^.W R r.3.9#>@p##+j.F.n.=@9#q#,+>+2+Q.D.U.R.O.0.Z.q#P.*+5.1+1+W.9#r##+V.*+;+,+L@-#0#-+-+R. .K@s#t#u#]#v#W.>@-#X r.6.'+R.",
"w#j h p W p#r.).=@9.>@Y 7+D.-+X =.8#^#N.-+r.5.X.-@=@)+;@s.x#6+Q.n.1+6@W.y#]#M+7+6+1+X L@q#e#6@T.N.0.z#A#t#B#C#-#]#Z.Z.T.6.x 3.#.",
"D#E#s F#9.E.+.+. .s.s.G#H#8#;@>@7#-#0.y#I#;@6.X =@y#I#9#s.^#z#J#K@N.=@r#>@q#K#K#7#L@L@W.L#e#L@L@-#s.M#N#O#P#I@N.W.9#9#0.E.^#Q#R#",
"S#T#U#V#W#X#u c#n#I#s Y#Z#`#s.s.;@K@E. $Y#b#T.R.W..$+$b#]#Z.@$Q#8#L@L@K@]#r##$$$%$]#-#r#&$W.W.W.^#I#*$b#a#^#6.6.L@^#Z.]#>@=$-$;$",
">$,$V#,$W#X# .k 9. $f#'$)$`#a#f#Z.0.-#@$Z#%$R.R.7#$$!$b#^#9#@$@$b#K@>#r#]#r##$#$%$9#~$]#]#]#r#-#9#.$%$f#.$x#C@R.{$8#9#9#;@]$^$/$"};
