/* XPM */
static char * player_xpm[] = {
"32 32 350 2",
"  	c None",
". 	c #231E1F",
"+ 	c #2D211F",
"@ 	c #3D291F",
"# 	c #482F1F",
"$ 	c #3C281F",
"% 	c #3B271F",
"& 	c #3F2A1F",
"* 	c #38261F",
"= 	c #2F211F",
"- 	c #341F1A",
"; 	c #573117",
"> 	c #7E4A12",
", 	c #915813",
"' 	c #8E5612",
") 	c #7E4A10",
"! 	c #854F11",
"~ 	c #895211",
"{ 	c #7A4710",
"] 	c #6B3C10",
"^ 	c #4F2A17",
"/ 	c #321E1A",
"( 	c #2C1D1B",
"_ 	c #522F17",
": 	c #885112",
"< 	c #A96916",
"[ 	c #A16315",
"} 	c #814C10",
"| 	c #905711",
"1 	c #9F6214",
"2 	c #935913",
"3 	c #7D4910",
"4 	c #6C3C0F",
"5 	c #4B2916",
"6 	c #2D1E1A",
"7 	c #35211B",
"8 	c #7A4711",
"9 	c #AF6E17",
"0 	c #B67318",
"a 	c #905712",
"b 	c #7D4B0F",
"c 	c #AE6C16",
"d 	c #A86916",
"e 	c #A76816",
"f 	c #B16E17",
"g 	c #945A13",
"h 	c #7F4B10",
"i 	c #6E3E10",
"j 	c #442A1B",
"k 	c #2E201D",
"l 	c #4A2917",
"m 	c #8F5714",
"n 	c #BB7618",
"o 	c #A26415",
"p 	c #8B501B",
"q 	c #AA6622",
"r 	c #B06E17",
"s 	c #A0601D",
"t 	c #A1621F",
"u 	c #B47018",
"v 	c #AE6C17",
"w 	c #895212",
"x 	c #7E4A11",
"y 	c #5E3618",
"z 	c #2F1F1B",
"A 	c #39231B",
"B 	c #5C3011",
"C 	c #8D5513",
"D 	c #A96915",
"E 	c #97591D",
"F 	c #BD7642",
"G 	c #CF8B4E",
"H 	c #9D5F1D",
"I 	c #BD743F",
"J 	c #BF7742",
"K 	c #A3621E",
"L 	c #AD6B17",
"M 	c #9B5F14",
"N 	c #7D4A11",
"O 	c #603311",
"P 	c #3A231B",
"Q 	c #633923",
"R 	c #975326",
"S 	c #97571F",
"T 	c #9A5B1D",
"U 	c #AB652D",
"V 	c #C38650",
"W 	c #BA8B5A",
"X 	c #BA713D",
"Y 	c #E49C63",
"Z 	c #D38F57",
"` 	c #8E5320",
" .	c #854F12",
"..	c #AA6915",
"+.	c #9F5E20",
"@.	c #955226",
"#.	c #633922",
"$.	c #824A29",
"%.	c #CB7237",
"&.	c #B3652E",
"*.	c #AA7041",
"=.	c #D8A06D",
"-.	c #A18562",
";.	c #9E6C44",
">.	c #E7A46C",
",.	c #EBAD75",
"'.	c #AE7E54",
").	c #A58D6B",
"!.	c #BE885A",
"~.	c #A36022",
"{.	c #C06F30",
"].	c #CD7337",
"^.	c #834A29",
"/.	c #5F3523",
"(.	c #98522B",
"_.	c #B3612D",
":.	c #C28251",
"<.	c #EAB884",
"[.	c #BA9B76",
"}.	c #9B7451",
"|.	c #EAB581",
"1.	c #EBB783",
"2.	c #A97D57",
"3.	c #BDA581",
"4.	c #E8B17E",
"5.	c #BD7847",
"6.	c #B4622D",
"7.	c #99532B",
"8.	c #623622",
"9.	c #613724",
"0.	c #914D28",
"a.	c #C98452",
"b.	c #EAB17B",
"c.	c #D9A878",
"d.	c #D09E6D",
"e.	c #EAB17C",
"f.	c #EBB37E",
"g.	c #D3A16F",
"h.	c #DAAD7C",
"i.	c #CA8451",
"j.	c #924E28",
"k.	c #4B2E22",
"l.	c #9D623C",
"m.	c #D89763",
"n.	c #EAAD76",
"o.	c #E7A56D",
"p.	c #E1945A",
"q.	c #E19459",
"r.	c #E6A36B",
"s.	c #EAAE77",
"t.	c #DB9864",
"u.	c #A0633B",
"v.	c #4E2F22",
"w.	c #18291E",
"x.	c #1F381C",
"y.	c #503F21",
"z.	c #9F633C",
"A.	c #D99662",
"B.	c #E6A56D",
"C.	c #E29960",
"D.	c #E29A61",
"E.	c #DB9863",
"F.	c #A3653D",
"G.	c #513A20",
"H.	c #1B301B",
"I.	c #17261E",
"J.	c #213B1A",
"K.	c #2C511B",
"L.	c #284A1C",
"M.	c #583D20",
"N.	c #90643F",
"O.	c #AE8053",
"P.	c #C88653",
"Q.	c #CE8954",
"R.	c #B28456",
"S.	c #936540",
"T.	c #5C3E21",
"U.	c #27471B",
"V.	c #274719",
"W.	c #1D361A",
"X.	c #17271D",
"Y.	c #1E371E",
"Z.	c #385F20",
"`.	c #406923",
" +	c #2E551D",
".+	c #284B1B",
"++	c #213E1A",
"@+	c #36381C",
"#+	c #532F21",
"$+	c #593221",
"%+	c #3A371D",
"&+	c #213F1A",
"*+	c #294C1B",
"=+	c #30581D",
"-+	c #30581E",
";+	c #2A4C1B",
">+	c #1C321E",
",+	c #192E1C",
"'+	c #33561F",
")+	c #406924",
"!+	c #28491E",
"~+	c #23421E",
"{+	c #2F571D",
"]+	c #2D541C",
"^+	c #284C1B",
"/+	c #1E381E",
"(+	c #1B321D",
"_+	c #26481A",
":+	c #24431E",
"<+	c #24431D",
"[+	c #26461B",
"}+	c #1A2E1D",
"|+	c #203C1E",
"1+	c #2F551D",
"2+	c #203D1C",
"3+	c #203C1F",
"4+	c #386221",
"5+	c #457026",
"6+	c #3D6823",
"7+	c #274B1B",
"8+	c #25471A",
"9+	c #3B6421",
"0+	c #467126",
"a+	c #3A6421",
"b+	c #213D1E",
"c+	c #223E1D",
"d+	c #2C511C",
"e+	c #1F391E",
"f+	c #1C341D",
"g+	c #254219",
"h+	c #234018",
"i+	c #1B301A",
"j+	c #2B4E1B",
"k+	c #3E6923",
"l+	c #477226",
"m+	c #386020",
"n+	c #375F1F",
"o+	c #3F6923",
"p+	c #2C4E1B",
"q+	c #192D1C",
"r+	c #1D331B",
"s+	c #244218",
"t+	c #1D331D",
"u+	c #794223",
"v+	c #9C5527",
"w+	c #894A22",
"x+	c #54301C",
"y+	c #2D221B",
"z+	c #3B3215",
"A+	c #264118",
"B+	c #65531B",
"C+	c #94621E",
"D+	c #6E571C",
"E+	c #274319",
"F+	c #3A3215",
"G+	c #2E221B",
"H+	c #59311C",
"I+	c #8E4D23",
"J+	c #9E5728",
"K+	c #7A4425",
"L+	c #91592C",
"M+	c #D1814B",
"N+	c #D38954",
"O+	c #9A572D",
"P+	c #202A1C",
"Q+	c #463415",
"R+	c #5F3216",
"S+	c #703D15",
"T+	c #744213",
"U+	c #724014",
"V+	c #723F16",
"W+	c #5E3216",
"X+	c #463616",
"Y+	c #20291C",
"Z+	c #A05C2F",
"`+	c #D38851",
" @	c #D18149",
".@	c #91592D",
"+@	c #9C5D35",
"@@	c #D37C41",
"#@	c #A55E30",
"$@	c #1E341E",
"%@	c #354218",
"&@	c #433815",
"*@	c #674316",
"=@	c #884F17",
"-@	c #6E4516",
";@	c #433915",
">@	c #344719",
",@	c #1E361D",
"'@	c #AB6332",
")@	c #D37C40",
"!@	c #9C5D33",
"~@	c #452F1E",
"{@	c #503925",
"]@	c #402F23",
"^@	c #192B1C",
"/@	c #254017",
"(@	c #2A481A",
"_@	c #254318",
":@	c #142B1A",
"<@	c #132A1B",
"[@	c #2A4819",
"}@	c #182A1B",
"|@	c #403023",
"1@	c #503825",
"2@	c #4A311E",
"3@	c #291D1A",
"4@	c #3E1E0F",
"5@	c #401E0F",
"6@	c #421F0F",
"7@	c #321E19",
"8@	c #341E1A",
"9@	c #47200F",
"0@	c #401D0E",
"a@	c #42251C",
"b@	c #6D3519",
"c@	c #783B1C",
"d@	c #70371A",
"e@	c #43241B",
"f@	c #3E231B",
"g@	c #6E3519",
"h@	c #793C1D",
"i@	c #41251B",
"j@	c #49281D",
"k@	c #773A1B",
"l@	c #773B1B",
"m@	c #622F15",
"n@	c #5F2D14",
"o@	c #3F231B",
"p@	c #5E2C14",
"q@	c #663016",
"r@	c #75391A",
"s@	c #48291D",
"t@	c #693922",
"u@	c #B25F2D",
"v@	c #B6622E",
"w@	c #7E3F1E",
"x@	c #4F2819",
"y@	c #131C1F",
"z@	c #4D271A",
"A@	c #854420",
"B@	c #B86430",
"C@	c #B3602D",
"D@	c #6C3B24",
"E@	c #121B1E",
"F@	c #131B1E",
"G@	c #10191C",
"H@	c #111A1D",
"I@	c #121B1F",
"                                                                ",
"                                                                ",
"                                                                ",
"                      . + @ # $ % & * = .                       ",
"                    - ; > , ' ) ! ~ { ] ^ /                     ",
"                  ( _ : < [ } | 1 1 2 3 4 5 6                   ",
"                  7 8 9 0 a b c d e f g h i j                   ",
"                k l m n o p q r s t u v w x y z                 ",
"                A B C D E F G H I J K L M N O P                 ",
"                Q R S T U V W X Y Z `  ...+.@.#.                ",
"                $.%.&.*.=.-.;.>.,.'.).!.~.{.].^.                ",
"                /.(._.:.<.[.}.|.1.2.3.4.5.6.7.8.                ",
"                  9.0.a.b.c.d.e.f.g.h.e.i.j.9.                  ",
"                    k.l.m.n.o.p.q.r.s.t.u.v.                    ",
"                  w.x.y.z.A.B.C.D.B.E.F.G.H.I.                  ",
"                I.J.K.L.M.N.O.P.Q.R.S.T.U.V.W.X.                ",
"                Y.Z.`. +.+++@+#+$+%+&+*+=+-+;+>+                ",
"              ,+'+)+!+~+{+]+^+/+(+_+]+=+:+<+]+[+}+              ",
"              |+1+-+2+3+4+5+6+7+8+9+0+a+b+c+]+d+e+              ",
"              f+g+h+i+}+j+k+l+m+n+l+o+p+q+r+s+g+t+              ",
"              u+v+w+x+y+z+A+B+C+C+D+E+F+G+H+I+J+K+              ",
"              L+M+N+O+P+Q+R+S+T+U+V+W+X+Y+Z+`+ @.@              ",
"                +@@@#@$@%@&@*@=@=@-@;@>@,@'@)@!@                ",
"                ~@{@]@^@/@(@_@:@<@s+[@/@}@|@1@2@                ",
"                      3@4@5@6@7@8@9@0@4@3@                      ",
"                      a@b@c@d@e@f@g@h@b@i@                      ",
"                    j@k@l@m@n@e@o@p@q@k@r@s@                    ",
"                    t@u@v@w@x@y@y@z@A@B@C@D@                    ",
"                      E@E@F@G@    H@E@E@I@                      ",
"                                                                ",
"                                                                ",
"                                                                "};
