/* XPM */
static char * wall_xpm[] = {
"32 32 600 2",
"  	c #3E5629",
". 	c #3F5828",
"+ 	c #425B27",
"@ 	c #466027",
"# 	c #476127",
"$ 	c #455F27",
"% 	c #435C27",
"& 	c #405927",
"* 	c #3F5827",
"= 	c #405828",
"- 	c #405827",
"; 	c #405928",
"> 	c #415A27",
", 	c #435D27",
"' 	c #3A5329",
") 	c #364E29",
"! 	c #354D2A",
"~ 	c #354C2A",
"{ 	c #364E2A",
"] 	c #374F29",
"^ 	c #395129",
"/ 	c #385129",
"( 	c #375029",
"_ 	c #3E5628",
": 	c #496326",
"< 	c #506A24",
"[ 	c #476026",
"} 	c #5B7525",
"| 	c #5A7424",
"1 	c #536E24",
"2 	c #526E24",
"3 	c #526D24",
"4 	c #4C6724",
"5 	c #445E26",
"6 	c #557023",
"7 	c #4B6525",
"8 	c #577224",
"9 	c #587324",
"0 	c #556F24",
"a 	c #4F6A24",
"b 	c #455E27",
"c 	c #455E26",
"d 	c #4E6825",
"e 	c #557024",
"f 	c #536F23",
"g 	c #5A7423",
"h 	c #526C24",
"i 	c #4D6824",
"j 	c #486326",
"k 	c #375129",
"l 	c #4B6526",
"m 	c #597226",
"n 	c #667F27",
"o 	c #73882D",
"p 	c #758B2D",
"q 	c #73892C",
"r 	c #6D8429",
"s 	c #577324",
"t 	c #657E27",
"u 	c #647D27",
"v 	c #688127",
"w 	c #71882B",
"x 	c #748A2D",
"y 	c #71872D",
"z 	c #5C7624",
"A 	c #70872B",
"B 	c #70872C",
"C 	c #617A27",
"D 	c #688028",
"E 	c #6A8228",
"F 	c #587323",
"G 	c #617B25",
"H 	c #688128",
"I 	c #72882B",
"J 	c #758B2C",
"K 	c #72892C",
"L 	c #4E6925",
"M 	c #71882A",
"N 	c #798F2E",
"O 	c #768C2C",
"P 	c #768D2C",
"Q 	c #6C8428",
"R 	c #708729",
"S 	c #748A2B",
"T 	c #758B2B",
"U 	c #778D2D",
"V 	c #7B912F",
"W 	c #7D9230",
"X 	c #6D842A",
"Y 	c #7A902E",
"Z 	c #627B27",
"` 	c #6E8628",
" .	c #6D8528",
"..	c #6A8129",
"+.	c #667F26",
"@.	c #6E8629",
"#.	c #778D2C",
"$.	c #667E27",
"%.	c #546E24",
"&.	c #5B7524",
"*.	c #6F862A",
"=.	c #7A8F2D",
"-.	c #788E2D",
";.	c #788F2D",
">.	c #7A8F2E",
",.	c #809431",
"'.	c #819531",
").	c #72892A",
"!.	c #7F9330",
"~.	c #7F9431",
"{.	c #6F872A",
"].	c #6F8729",
"^.	c #6C8528",
"/.	c #6B8327",
"(.	c #6B8328",
"_.	c #778E2D",
":.	c #738A2A",
"<.	c #667E26",
"[.	c #5A7523",
"}.	c #5F7726",
"|.	c #7C9130",
"1.	c #7D922F",
"2.	c #839633",
"3.	c #788E2E",
"4.	c #698128",
"5.	c #6D8529",
"6.	c #819532",
"7.	c #839632",
"8.	c #829632",
"9.	c #6E8528",
"0.	c #748A2C",
"a.	c #819632",
"b.	c #698227",
"c.	c #829532",
"d.	c #819631",
"e.	c #829531",
"f.	c #678027",
"g.	c #657E26",
"h.	c #647C26",
"i.	c #476125",
"j.	c #435B28",
"k.	c #597227",
"l.	c #647E25",
"m.	c #677F28",
"n.	c #7F9331",
"o.	c #778C2C",
"p.	c #73892A",
"q.	c #6F8629",
"r.	c #748B2C",
"s.	c #7C912F",
"t.	c #7D912F",
"u.	c #798F2D",
"v.	c #38502A",
"w.	c #4C6429",
"x.	c #637D25",
"y.	c #71892A",
"z.	c #798E2E",
"A.	c #71872B",
"B.	c #667E28",
"C.	c #678026",
"D.	c #70872A",
"E.	c #7E9330",
"F.	c #738A2B",
"G.	c #788D2D",
"H.	c #768C2D",
"I.	c #647C28",
"J.	c #4F6925",
"K.	c #4A6426",
"L.	c #32482B",
"M.	c #4A6129",
"N.	c #688026",
"O.	c #667F25",
"P.	c #6A8327",
"Q.	c #5E7825",
"R.	c #536D25",
"S.	c #637C26",
"T.	c #70862A",
"U.	c #698127",
"V.	c #5F7924",
"W.	c #5A7524",
"X.	c #688126",
"Y.	c #647D25",
"Z.	c #5D7825",
"`.	c #718929",
" +	c #7B902E",
".+	c #637C25",
"++	c #677E2B",
"@+	c #3A5229",
"#+	c #26392D",
"$+	c #546A2D",
"%+	c #677F25",
"&+	c #6D8527",
"*+	c #4B6427",
"=+	c #506A25",
"-+	c #5E7924",
";+	c #678126",
">+	c #546A26",
",+	c #22352D",
"'+	c #31482A",
")+	c #415B27",
"!+	c #5E7824",
"~+	c #718829",
"{+	c #698226",
"]+	c #587027",
"^+	c #385029",
"/+	c #546F23",
"(+	c #496227",
"_+	c #32472B",
":+	c #445A27",
"<+	c #3C5428",
"[+	c #5F742C",
"}+	c #354B2A",
"|+	c #15222D",
"1+	c #17262C",
"2+	c #2E3E2C",
"3+	c #3C4F2A",
"4+	c #4B6226",
"5+	c #2F4129",
"6+	c #364B29",
"7+	c #4B6327",
"8+	c #4A6028",
"9+	c #35482A",
"0+	c #17252C",
"a+	c #21312E",
"b+	c #3C5329",
"c+	c #3E5529",
"d+	c #384D2B",
"e+	c #42572C",
"f+	c #455D28",
"g+	c #516C24",
"h+	c #354826",
"i+	c #25352A",
"j+	c #1D2E2B",
"k+	c #4F6728",
"l+	c #33482B",
"m+	c #28392B",
"n+	c #597324",
"o+	c #50662A",
"p+	c #394C2C",
"q+	c #1F2F2E",
"r+	c #14212E",
"s+	c #14202D",
"t+	c #17252E",
"u+	c #24352C",
"v+	c #3F5728",
"w+	c #23332D",
"x+	c #26372D",
"y+	c #3A4F2B",
"z+	c #597127",
"A+	c #33462B",
"B+	c #21312F",
"C+	c #1E2932",
"D+	c #1B2731",
"E+	c #34492C",
"F+	c #30452A",
"G+	c #20322C",
"H+	c #27392D",
"I+	c #39502A",
"J+	c #384F2A",
"K+	c #30442B",
"L+	c #42582B",
"M+	c #22312C",
"N+	c #1D2831",
"O+	c #293337",
"P+	c #33482A",
"Q+	c #35492D",
"R+	c #2B3D2E",
"S+	c #1D2B2C",
"T+	c #4D6626",
"U+	c #283732",
"V+	c #222D35",
"W+	c #16222E",
"X+	c #1E2E2B",
"Y+	c #3D5528",
"Z+	c #253530",
"`+	c #1A2631",
" @	c #22322F",
".@	c #22322E",
"+@	c #242F36",
"@@	c #313C3E",
"#@	c #212D35",
"$@	c #283A2F",
"%@	c #22332C",
"&@	c #111E2C",
"*@	c #182430",
"=@	c #31462C",
"-@	c #2C402C",
";@	c #16232F",
">@	c #1C2831",
",@	c #17232F",
"'@	c #2B3538",
")@	c #404844",
"!@	c #202C34",
"~@	c #1E2A33",
"{@	c #1A282D",
"]@	c #233330",
"^@	c #2D373A",
"/@	c #323B3D",
"(@	c #15222E",
"_@	c #1C2932",
":@	c #303A3C",
"<@	c #353E3E",
"[@	c #1A2732",
"}@	c #363F3E",
"|@	c #374040",
"1@	c #2E393C",
"2@	c #121F2D",
"3@	c #313B3D",
"4@	c #414844",
"5@	c #4A5149",
"6@	c #4B524A",
"7@	c #2C373B",
"8@	c #3C4542",
"9@	c #575B4F",
"0@	c #565A4E",
"a@	c #4A5048",
"b@	c #343E3F",
"c@	c #222E36",
"d@	c #454942",
"e@	c #676957",
"f@	c #52574D",
"g@	c #52574C",
"h@	c #51564C",
"i@	c #484E46",
"j@	c #192630",
"k@	c #3E4542",
"l@	c #55594D",
"m@	c #243037",
"n@	c #263138",
"o@	c #444B45",
"p@	c #51564B",
"q@	c #4D5248",
"r@	c #5A5D4E",
"s@	c #50554A",
"t@	c #414843",
"u@	c #1F2C34",
"v@	c #4A4F47",
"w@	c #555A4E",
"x@	c #595D50",
"y@	c #616453",
"z@	c #5C5F50",
"A@	c #626453",
"B@	c #4D534A",
"C@	c #50554B",
"D@	c #5C6052",
"E@	c #4B514A",
"F@	c #283135",
"G@	c #333A3A",
"H@	c #4D5249",
"I@	c #636755",
"J@	c #606353",
"K@	c #53584D",
"L@	c #4F5449",
"M@	c #3F4643",
"N@	c #202C35",
"O@	c #2E393D",
"P@	c #4F544B",
"Q@	c #5F6253",
"R@	c #666956",
"S@	c #565B4E",
"T@	c #4C5249",
"U@	c #4E5349",
"V@	c #54594D",
"W@	c #636655",
"X@	c #676956",
"Y@	c #626554",
"Z@	c #5A5E50",
"`@	c #5B5F51",
" #	c #4E544A",
".#	c #5F6353",
"+#	c #4B5149",
"@#	c #293136",
"##	c #283236",
"$#	c #3A4341",
"%#	c #656855",
"&#	c #616454",
"*#	c #656856",
"=#	c #4F544A",
"-#	c #333D3F",
";#	c #71725C",
">#	c #484E48",
",#	c #494F48",
"'#	c #16222F",
")#	c #3F4642",
"!#	c #434A45",
"~#	c #50554C",
"{#	c #5C5F51",
"]#	c #5E6152",
"^#	c #585D50",
"/#	c #474E48",
"(#	c #585C4F",
"_#	c #565B4F",
":#	c #384241",
"<#	c #222C34",
"[#	c #1F2B34",
"}#	c #2A353A",
"|#	c #474E47",
"1#	c #656756",
"2#	c #6E6F59",
"3#	c #646755",
"4#	c #70715B",
"5#	c #53584C",
"6#	c #2A3439",
"7#	c #13202D",
"8#	c #293338",
"9#	c #394141",
"0#	c #3E4643",
"a#	c #424A45",
"b#	c #303A3D",
"c#	c #1C2832",
"d#	c #29353A",
"e#	c #3B4342",
"f#	c #484F47",
"g#	c #484E47",
"h#	c #323C3E",
"i#	c #394341",
"j#	c #363F3F",
"k#	c #2D383C",
"l#	c #2C373C",
"m#	c #192530",
"n#	c #283136",
"o#	c #3F4743",
"p#	c #424945",
"q#	c #384141",
"r#	c #353E3F",
"s#	c #15212E",
"t#	c #1F2A33",
"u#	c #273137",
"v#	c #273036",
"w#	c #2D363A",
"x#	c #2C353A",
"y#	c #263137",
"z#	c #1D2832",
"A#	c #252F35",
"B#	c #31393B",
"C#	c #2E3639",
"D#	c #30393B",
"E#	c #263037",
"F#	c #232D35",
"G#	c #1D2833",
"H#	c #1C2732",
"I#	c #202B33",
"J#	c #293439",
"K#	c #31383B",
"L#	c #2A3338",
"M#	c #2C3539",
"N#	c #252F36",
"O#	c #212B34",
"P#	c #131F2D",
"Q#	c #273136",
"R#	c #2C3437",
"S#	c #3B413D",
"T#	c #3F443F",
"U#	c #404540",
"V#	c #40453F",
"W#	c #3A403D",
"X#	c #3C423E",
"Y#	c #444942",
"Z#	c #3E433F",
"`#	c #333B3B",
" $	c #2B3539",
".$	c #18242F",
"+$	c #2B3437",
"@$	c #2F3738",
"#$	c #323939",
"$$	c #363C3A",
"%$	c #444842",
"&$	c #484C44",
"*$	c #444841",
"=$	c #3A3F3C",
"-$	c #363D3C",
";$	c #3A413E",
">$	c #383E3D",
",$	c #2E3739",
"'$	c #253035",
")$	c #15222F",
"!$	c #2F383A",
"~$	c #3D4542",
"{$	c #6D6F5A",
"]$	c #6F715B",
"^$	c #71725B",
"/$	c #70725B",
"($	c #3B4442",
"_$	c #263238",
":$	c #494F47",
"<$	c #5D6152",
"[$	c #6F715A",
"}$	c #72735C",
"|$	c #72745C",
"1$	c #666856",
"2$	c #5D6052",
"3$	c #5B5F50",
"4$	c #384140",
"5$	c #2D373B",
"6$	c #13202E",
"7$	c #444C46",
"8$	c #5D6051",
"9$	c #595E50",
"0$	c #454D46",
"a$	c #454C46",
"b$	c #222E35",
"c$	c #52574B",
"d$	c #6B6C58",
"e$	c #51574C",
"f$	c #5C6051",
"g$	c #696B57",
"h$	c #676A57",
"i$	c #5E6252",
"j$	c #444B46",
"k$	c #4E534A",
"l$	c #6E705A",
"m$	c #6D6E59",
"n$	c #656755",
"o$	c #50564C",
"p$	c #232E36",
"q$	c #595D4F",
"r$	c #6A6C58",
"s$	c #6A6D58",
"t$	c #6C6E59",
"u$	c #6B6D58",
"v$	c #5F6252",
"w$	c #616554",
"x$	c #464D46",
"y$	c #1E2A34",
"z$	c #253138",
"A$	c #474D47",
"B$	c #5A5E51",
"C$	c #555A4D",
"D$	c #4B5148",
"E$	c #4A5049",
"F$	c #676A56",
"G$	c #696B58",
"H$	c #212C35",
"I$	c #6C6D58",
"J$	c #575B4E",
"K$	c #626553",
"L$	c #565B4D",
"M$	c #1F2A34",
"N$	c #29343A",
"O$	c #464C46",
"P$	c #4F554B",
"Q$	c #6B6D59",
"R$	c #1B2732",
"S$	c #75765E",
"T$	c #73745C",
"U$	c #414944",
"V$	c #3C4442",
"W$	c #464D47",
"X$	c #37403F",
"Y$	c #434B45",
"Z$	c #3B4441",
"`$	c #343D3E",
" %	c #636654",
".%	c #55594E",
"+%	c #444A45",
"@%	c #242F37",
"#%	c #2E373A",
"$%	c #212C34",
"%%	c #6F705B",
"&%	c #313A3D",
"*%	c #172430",
"=%	c #14202E",
"-%	c #2A3438",
";%	c #54594E",
">%	c #52584E",
",%	c #3F4744",
"'%	c #626555",
")%	c #575C4F",
"!%	c #333D3E",
"~%	c #182530",
"{%	c #202B34",
"]%	c #2C363A",
"^%	c #343D3F",
"/%	c #3F4844",
"(%	c #2F393D",
"_%	c #394241",
":%	c #374141",
"<%	c #374140",
"[%	c #3A4241",
"}%	c #303B3D",
"|%	c #495048",
"1%	c #414945",
"2%	c #192631",
"3%	c #2D383B",
"4%	c #283439",
"5%	c #313C3D",
"6%	c #293438",
"7%	c #283339",
"8%	c #273238",
"9%	c #2A3539",
"0%	c #192531",
"a%	c #1E2933",
"b%	c #1F2B33",
"c%	c #14212F",
"d%	c #131F2E",
"e%	c #192532",
"f%	c #1A2632",
"g%	c #1C2833",
"h%	c #182531",
"i%	c #172330",
"  . + @ @ @ @ # $ % & * = = - ; > , $ + ' ) ! ~ ! { ) ] ] ^ / ( ",
"_ : < [ } | 1 2 3 4 5 6 6 < 7 8 9 0 a b c d 9 8 e f f g h i j k ",
"l m n o p q r s t n u v w x y z A q B h C D E F G H I J K C L / ",
"1 u M N O O P D Q R S T U V W X q U Y Z Q `  ...+.@.Y N #.$.%.5 ",
"&.*.=.-. .R ;.>.M O ,.'.).J !.~. .{.Y N ].^./.,.(.r _.#.:.<.[.2 ",
"l }. .|.1.,.2.3.4.5.O 6.6.'.~.,.7.8.8.8.9.0.a.b.>.c.d.e.f.g.h.i.",
"j.k.l.m.O N Y n.>.o.p.q.q.r.V s.s.!.7.8.t.Y u.).#.s.'.'.M t } L ",
"v.w.m x.r q.y.'.z.A.B.C.+.D.W E.F.q p z.G.I ..:.].O !.H.#.I.J.K.",
"L.v.M.` N.O.P.!.(.Q.R.S.G T.'.'.U.V.W.X.Y.Z.0 `.O.*. +.+s.++[ @+",
"#+$+%+&+*+=+-+;+X.>+,+'+)+J.!+~+{+]+^+/+6 (+_+&+:+! <+!+N [+}+|+",
"1+2+3+4+5+6+7+C.8+9+0+a+b+c+d+e+M.f+@+g+h+i+j+k+= l+m+n+o+p+q+r+",
"s+t+u+v+w+x+y+z+A+B+C+D+E+F+G+H+I+J+K+L+M+N+O+P+Q+R+S+T+E+U+V+r+",
"D+W+X+Y+Z+`+ @v+.@+@@@#@$@%@&@*@=@-@;@>@,@'@)@s+!@~@{@^+]@^@/@(@",
"_@:@<@[@}@|@1@2@3@4@5@6@:@7@8@9@0@a@b@c@*@d@e@f@g@h@i@j@k@f@l@m@",
"n@o@p@q@r@s@t@u@v@w@x@y@z@0@f@A@B@C@D@E@F@G@H@w@I@J@K@L@l@H@M@N@",
"O@P@Q@R@y@S@T@N@U@l@V@W@X@Y@Z@`@ #l@.#+#@###$#g@%#e@Y@&#*#=#/@`+",
"-#C@Y@;#T@>#,#'#)#!#$#~#{#]#^#/#(#_#h@:#<#[#}#|#9@1#2#3#4#5#6#7#",
"r+8#9#0#a#M@b#c#d#e#+#,#f#g#!#h#i#j#k#l#m#n#$#5@)@o#p#o#q#r#:@7#",
"s#t#u#v#w#x#y#c#z#A#B#C#D#/@:@E#u#F#G#H#*@I#J#K#L#M#D#w#8#N#O#P#",
"s#I#Q#R#S#T#U#V#W#X#Y#Z#`# $#@.$+$@$#$$$%$&$&$*$=$-$;$>$,$'$C+P#",
")$!$~$|#%#{$]$^$W@%#/$W@B@($_$r+:$V@<$y@[$}$|$|$1$2$3$x@|#4$5$6$",
"_$j#7$8$`@9$`@X@&#l@0$K@J@(#a$b$c$J@d$~#e$f$g$Q@Q@h$]$i$i$V@j$!@",
"m@!#l@Y@k$g#B@l$m$n$Z@J@x@o$7$p$4@k$q$g$r$s$t$u$v$w$R@v$g$f$x$y$",
"z$A$B$%#C$D$E$F$G$%#]#&#i$l@g#H$$#|#V@{$t$t$I$^$R@Q@J$C$K$L$4@M$",
"N$b@O$Y@l$J@~#P$_#x@Z@<$Q$W@B@R$4@h@]#]#Z@.#g$S$T$y@U$V$W$4@X$~@",
"N@^@V$o@u$G$.#i$Q@C$Y$X@V@|#Z$N@`$l@^$|$ %`@`@_#.%x@J@2#.#+%@%r+",
"`+#%!#(#3#Y@Q@Z@W@ %.#F$.%|#$#$%<@ #W@%%Y@`@`@>#<$1#1$3#]#+#&%*%",
"=%-%4@`@B$x@9$e$Y@e@h$J@f@j$q#~@j#W$f@*#Z@;%>%,%<$*#'%(#)%,#!%~%",
"=%{%]%4$4$b@^%>#,#g#/#b@/%V$(%s#_%($:%<%[%j#}%E$|%!#4$1%a#|@z$=%",
"6$=%2%+@N@y#7@3%3%4%c@b#5%6%D+=%,@c#c@k#7%8%7%b$9%]%3%1@3@+@s+7#",
")$s#'#c#0%c#!@[#H$a%0%$%V+C+,@r+2%`+`+O#V+H$[#~@b%!@$%p$V+R$=%r+",
";@s#r+s#r+r+c%s#'#)$d%d%6$6$r+)$R$e%r+c%f%f%*%g%h%i%;@2%)$r+c%=%"};
